<?xml version="1.0" encoding="utf-8"?>
<!-- Generator: Adobe Illustrator 23.0.3, SVG Export Plug-In . SVG Version: 6.00 Build 0)  -->
<svg version="1.1" id="Layer_1" xmlns="http://www.w3.org/2000/svg" xmlns:xlink="http://www.w3.org/1999/xlink" x="0px" y="0px"
	 viewBox="0 0 539.6 403.6" style="enable-background:new 0 0 539.6 403.6;" xml:space="preserve">
<style type="text/css">
	.st0{fill-rule:evenodd;clip-rule:evenodd;fill:#B12F57;}
</style>
<g>
	<path class="st0" d="M0,73.6c3.7-7.2,9.6-9.7,17.7-9.5c13.9,0.4,27.7,0,41.6,0.2c5.1,0,8.7,3.5,8.8,7.9c0.1,4.5-3.4,7.7-8.6,8
		c-1.4,0.1-2.8,0-4.2,0c-11.2,0-22.5,0-33.7,0c-1.7,0-3.4,0.1-5.4,0.2c0,102.4,0,204.5,0,307.2c2.2,0,4.3,0,6.3,0
		c49.7,0,99.4,0,149.1,0c2.4,0,5.5-0.1,7,1.2c2.1,1.9,4.4,5.3,3.9,7.6c-0.5,2.6-3.7,4.9-6.1,6.7c-1.2,0.9-3.4,0.4-5.2,0.4
		c-51.4,0-102.9-0.1-154.3,0.1c-7.9,0-13.6-2.5-16.8-9.9C0,287.1,0,180.3,0,73.6z"/>
	<path class="st0" d="M256.7,79.6c6.9-8.2,15.4-13.5,25.9-14.9c2.9-0.4,5.9-0.5,8.9-0.5c25.3,0,50.5,0,76.5,0
		c2.3-23,14-40,33.4-51.8C417.5,2.7,435.2-0.6,453.9,1c11.3,1,22,4.3,32,9.7c10,5.4,18.5,12.6,25.1,22c6.6,9.4,10.2,19.9,11.1,30.6
		c4.1,1.1,8.3,1.2,10.9,3.3c2.9,2.5,4.5,6.6,6.3,10.2c0.6,1.1,0.1,2.8,0.1,4.2c0,102,0,204,0,306c0,12.3-4.3,16.7-16.9,16.7
		c-102.3,0-204.7,0-307,0c-1.1,0-2.1,0-3.2,0c-5.3-0.4-8.7-3.6-8.6-8c0.1-4.4,3.7-7.8,8.8-7.9c11.8-0.1,23.5,0,36.1,0
		c0-2.2,0-4.2,0-6.3c0-91.6,0-183.3,0-274.9c0-17.1-9.2-26.2-26.4-26.3c-40.2,0-80.4,0-120.6,0c-1.8,0-3.5,0-5.3-0.1
		c-4.6-0.3-7.1-3.1-7.4-7.4c-0.2-4.4,2.4-7.2,6.7-8.2c1.7-0.4,3.5-0.2,5.2-0.2c39.7,0,79.4,0.2,119-0.1
		C234.5,64,246.9,67.8,256.7,79.6z M264.5,387.3c77.9,0,155.2,0,232.5,0c0-90.3,0-180.3,0-270.4c-10,5.2-10,5.2-10,15.4
		c0,11.6,0,23.2,0,34.8c0,8.3-2.5,10.8-10.6,10.8c-63.6,0-127.1,0-190.7,0c-8.2,0-10.7-2.5-10.7-10.6c0-20.2,0-40.4,0-60.6
		c0-11.4,4.6-16.1,15.9-16.1c23.2,0,46.4,0,69.5,0c4,0,8,0,12.1,0c-2.4-10.3-2.4-10.3-11.9-10.3c-23,0-46,0-69,0
		c-17.9,0-27,9.1-27,26.8c0,91.5,0,183,0,274.5C264.5,383.3,264.5,385.2,264.5,387.3z M290.9,161.6c60.4,0,120.1,0,179.9,0
		c0-10.7,0-20.9,0-31.3c-1,0.1-1.7,0-2.4,0.2c-15.2,4.1-30.4,4.2-45.7,0.3c-1.7-0.4-4.1,0.5-5.6,1.5c-5.2,3.6-9.9,7.9-15.3,11.1
		c-2.5,1.4-6.8,2.1-9,0.8c-2.2-1.2-3.7-5.3-3.8-8.2c-0.2-5,0.8-10.1,1.5-15.1c1.2-7.9-4.1-14.3-12-14.3c-27.2,0-54.4,0-81.6,0
		c-1.9,0-3.7,0.2-5.9,0.3c0,2.2,0,3.7,0,5.3C290.9,128.4,290.9,144.7,290.9,161.6z M406.9,119.4c6.7-7.5,13.9-5.8,22-3.8
		c19.2,4.7,37.6,1.8,54.3-9.2c28-18.3,30.6-52.8,5.7-74.5c-24.4-21.3-66.3-20.3-89.7,2c-20.2,19.2-20.1,48.2,0.7,66.7
		C405.7,105.8,409.7,110.6,406.9,119.4z M523.4,80.1c-1.3,0.3-2.1,0.2-2.2,0.5c-2.6,7.5-7.4,15-7.5,22.5
		c-0.5,92.9-0.3,185.8-0.3,278.6c0,1.9,0,3.7,0,5.6c3.9,0,6.9,0,10,0C523.4,284.8,523.4,182.7,523.4,80.1z"/>
	<path class="st0" d="M63.2,284c-4.2-6.4-7.4-12-15.8-10.5c-4.1,0.7-8.4,0.2-12.6,0.1c-5.4-0.2-8.4-3.2-8.4-8.7
		c-0.1-22.6-0.1-45.3,0-67.9c0-5.8,2.8-8.6,8.8-8.7c7.2-0.1,14.4,0,21.6,0c56.4,0,112.7,0,169.1,0c10.5,0,12.3,1.7,12.3,12.1
		c0,20.9,0,41.8,0,62.7c0,8.1-2.6,10.6-10.8,10.6c-6.1,0-12.3,0-18.4,0c-9.6,0-10.7,0.6-16,10.3c10.1,0,19.9,0,29.6,0
		c15.2,0,15.6,0.4,15.6,15.7c0,22.3,0,44.6,0,66.9c0,8.3-2.3,10.7-10.6,10.7c-32.8,0-65.7,0-98.5,0c-8.1,0-10.7-2.6-10.8-10.7
		c-0.1-7.1-0.7-8.4-9.5-20c-0.2,1.8-0.5,3-0.5,4.3c-0.1,5.8,0.1,11.6-0.1,17.4c-0.2,5.8-2.8,8.9-8.1,9c-21.9,0.2-43.9,0.2-65.8,0
		c-5.2,0-7.8-3.2-7.8-8.6c-0.1-25.3-0.1-50.6,0-75.8c0-5.7,2.8-8.6,8.8-8.7C44.3,283.9,53.3,284,63.2,284z M127.9,346
		c2.7-4.1,5-7.8,7.3-11.4c4.2-6.4,8.9-7.9,16.2-5.2c4.1,1.5,8.1,3.1,12.7,4.8c-0.3-4.3-0.6-7.9-0.8-11.6
		c-0.4-10.5,2.1-13.8,12.2-16.3c3.5-0.9,6.9-1.9,10.9-3c-1.8-2.3-3.1-3.9-4.4-5.5c-1.4-1.8-3-3.5-4.4-5.3c-4.3-5.5-4.3-10.7,0-16.3
		c2.8-3.5,5.7-7,8.9-11c-4.8-1.2-8.8-2.3-12.8-3.3c-7.4-1.9-10.6-5.9-10.4-13.6c0.1-4.5,0.5-8.9,0.8-13.9c-4.5,1.7-8.4,3.2-12.3,4.7
		c-7.9,3-12.2,1.5-16.9-5.6c-2.3-3.5-4.5-6.9-7-10.9c-2.6,4.1-4.8,7.6-7.1,11.1c-4.5,6.8-9,8.4-16.5,5.5c-4-1.5-8.1-3.1-12.7-4.9
		c0.4,4.9,0.8,9.1,1,13.3c0.4,7.8-2.8,12.2-10.3,14.3c-4.1,1.1-8.3,2.2-13,3.4c2.5,3.1,4.5,5.5,6.5,7.9c7.6,9.1,7.7,13,0.1,22
		c-2.1,2.5-4.1,5-6.7,8.1c4.5,1.2,8.2,2.1,11.8,3.1c9.1,2.4,12.1,6.5,11.4,16c-0.3,3.7-0.6,7.4-0.9,11.9c4.4-1.7,7.8-3.1,11.2-4.4
		c9.1-3.6,13.4-2.2,18.6,5.9C123.4,339.1,125.5,342.3,127.9,346z M222,257.6c0-18.2,0-35.7,0-53.2c-29.2,0-58,0-86.8,0
		c3.6,5.6,6.9,11.1,10.7,16.3c0.8,1.1,3.5,1.9,4.9,1.5c4.4-1.2,8.5-3.2,12.8-4.8c10-3.7,17.5,2,16.9,12.7
		c-0.3,5.6-0.5,11.1-0.7,16.4c8.9,3.8,19.2,2.7,25.7,10.8c0.3,0.4,1.3,0.3,2,0.3C212.1,257.6,216.9,257.6,222,257.6z M147.6,345.1
		c-3.4,5.4-6.6,10.4-10.2,16c28.8,0,56.6,0,84.5,0c0-20.5,0-40.7,0-60.9c-5.8,0-11.2,0-16.7,0c1.5,12.2-0.5,15.1-12.5,18.3
		c-2,0.5-4,1.3-6.1,1.5c-5.4,0.6-8.2,2.7-6.8,8.8c0.8,3.5,0.5,7.3,0.6,11c0.3,9.4-7.3,15-16.1,11.9
		C159,349.7,153.7,347.4,147.6,345.1z M42.4,204.3c0,17.9,0,35.4,0,54c3.5-0.8,6.7-1.2,9.5-2.3c3.5-1.4,6.5-3.9,10-5.2
		c4.5-1.7,9.3-2.6,14.3-3.9c-0.3-5.5-0.5-10.6-0.9-15.6c-1-11.6,6.7-17.7,17.4-13.6c4.3,1.6,8.4,3.4,12.7,4.9c1.1,0.4,3.3,0,3.9-0.8
		c3.9-5.6,7.5-11.4,11.4-17.5C94.5,204.3,68.7,204.3,42.4,204.3z M42.3,361c16.7,0,33,0,49.4,0c0-3.2,0-6.1,0-9
		c-11.5,1.8-17.4-3.7-16.3-15c0.2-1.9,0.4-3.8,0.5-5.8c0.4-9.4,0.4-9.4-8.9-11.9c-1.4-0.4-2.7-0.7-4.1-1.1
		c-11.8-3.1-13.8-6.1-12.5-18c-2.7,0-5.4,0-8.2,0C42.3,320.7,42.3,340.6,42.3,361z"/>
	<path class="st0" d="M84,177.8c-15.8,0-31.6,0-47.4,0c-7.8,0-10.3-2.6-10.3-10.5c0-22.1,0-44.2,0-66.3c0-7.8,2.6-10.5,10.3-10.5
		c31.6,0,63.2,0,94.7,0c7.5,0,10.5,2.9,10.5,10.6c0.1,22.1,0.1,44.2,0,66.3c0,7.7-2.9,10.4-10.5,10.4
		C115.6,177.8,99.8,177.8,84,177.8z M125.4,107c-28.1,0-55.5,0-83,0c0,18.4,0,36.5,0,54.7c27.8,0,55.2,0,83,0
		C125.4,143.3,125.4,125.3,125.4,107z"/>
	<path class="st0" d="M195,177.8c-11.1,0-22.1,0-33.2,0c-6.7,0-9.8-2.9-9.8-9.5c-0.1-22.6-0.1-45.3,0-67.9c0-6.9,3.2-9.8,10.2-9.8
		c20.5,0,41.1-0.1,61.6,0c9.3,0,14.3,5,14.3,14.3c0.1,21.1,0.1,42.1,0,63.2c0,7.1-2.7,9.7-10,9.7C217.2,177.8,206.1,177.8,195,177.8
		z M222.1,106.9c-18.1,0-35.7,0-53.4,0c0,18.4,0,36.5,0,54.8c18,0,35.6,0,53.4,0C222.1,143.3,222.1,125.3,222.1,106.9z"/>
	<path class="st0" d="M291.2,300c0,20.5,0,40.5,0,61.1c1.6,0.1,3.3,0.2,4.9,0.2c28.8,0,57.6,0.1,86.4-0.1c1.9,0,4.7-1.5,5.7-3.1
		c17.5-29.4,47-43.5,80.7-38.1c0.5,0.1,1,0,1.9,0c0-6.5,0-12.9,0-20c-6.4,0-12.8,0-19.2,0c-1.9,0-3.9,0.2-5.8-0.2
		c-4.3-0.8-7-3.6-6.9-8c0.1-4.3,2.5-7.5,7.2-7.6c11.2-0.2,22.5-0.3,33.7,0c5,0.1,7.3,3.2,7.3,9c0.1,12.8,0,25.6,0,38.4
		c0,11.6,0,23.2,0,34.8c0,8.5-2.4,10.8-11,10.8c-50.9,0-101.8,0-152.7,0c-12.5,0-24.9,0-37.4,0c-8.5,0-10.8-2.5-10.8-11.1
		c0-23.9,0-47.7,0-71.6c0-7.9,2.5-10.6,10.2-10.6c40.7,0,81.5,0,122.2,0c6.7,0,10.3,2.9,10.4,7.8c0.1,5.1-3.9,8.1-10.7,8.1
		c-36.5,0-73,0-109.5,0C295.6,300,293.5,300,291.2,300z M405.3,360.9c22.5,0,44,0,65.8,0c0-7.4,0.2-14.4-0.2-21.3
		c-0.1-1.3-2-3.3-3.3-3.5c-5.4-0.7-10.8-1.5-16.2-1.2C432.3,336.2,417.1,344.8,405.3,360.9z"/>
	<path class="st0" d="M425.6,188.3c17,0,34,0,51,0c7.9,0,10.3,2.5,10.3,10.4c0,21.6,0.1,43.1,0,64.7c0,7.5-2.7,10.2-10.1,10.2
		c-33.8,0-67.7,0-101.5,0c-7.6,0-10.5-2.9-10.5-10.5c-0.1-21.6-0.1-43.1,0-64.7c0-7.4,2.8-10.1,10.3-10.1
		C392,188.3,408.8,188.3,425.6,188.3z M470.9,204.4c-30.1,0-59.7,0-89.5,0c0,17.7,0,35.1,0,52.8c30,0,59.6,0,89.5,0
		C470.9,239.5,470.9,222.2,470.9,204.4z"/>
	<path class="st0" d="M275,230.8c0-10.7,0-21.4,0-32.1c0-7.6,2.5-10.3,9.9-10.3c20-0.1,40-0.1,60,0c6.8,0,9.7,2.8,9.7,9.6
		c0.1,21.9,0.1,43.9,0,65.8c0,7-3.1,9.9-10,9.9c-19.8,0-39.7,0-59.5,0c-7.3,0-10.1-2.8-10.1-10.2C275,252.5,275,241.7,275,230.8z
		 M291.3,204.4c0,17.9,0,35.3,0,52.9c15.9,0,31.3,0,46.9,0c0-17.8,0-35.3,0-52.9C322.4,204.4,307,204.4,291.3,204.4z"/>
	<path class="st0" d="M445.1,60.8c-10.5,0-21.1,0-31.6,0c-5.9,0-9.7-3.3-9.6-8.1c0.1-4.7,3.6-7.7,9.4-7.8c21.2-0.1,42.5-0.1,63.7,0
		c5.8,0,9.3,3.1,9.3,7.8c0.1,4.8-3.7,8.1-9.6,8.1C466.2,60.9,455.7,60.8,445.1,60.8z"/>
	<path class="st0" d="M445.7,73.4c8.6,0,17.2-0.1,25.8,0c6.1,0.1,9.7,3.2,9.6,8c-0.1,4.8-3.9,7.8-9.9,7.8c-17.4,0-34.7,0-52.1,0
		c-6,0-9.8-3.1-9.9-7.9c-0.1-4.8,3.5-8,9.6-8C427.8,73.3,436.7,73.4,445.7,73.4z"/>
	<path class="st0" d="M127.5,277.8c-6.8,0-13.7,0.1-20.5,0c-5.9-0.1-9.7-3.4-9.7-8.1c0-4.7,3.8-8,9.8-8c14-0.1,28.1-0.1,42.1,0
		c6.1,0.1,9.6,3.4,9.4,8.3c-0.2,4.6-3.7,7.7-9.4,7.8C141.9,277.8,134.7,277.8,127.5,277.8z"/>
	<path class="st0" d="M127.7,307.3c-6.8,0-13.7,0.1-20.5,0c-6-0.1-9.8-3.2-9.9-7.9c-0.1-4.7,3.7-8.2,9.6-8.2c14-0.1,28.1-0.1,42.1,0
		c6.2,0.1,9.6,3.2,9.6,8.1c-0.1,4.8-3.7,7.9-9.7,8C141.7,307.3,134.7,307.3,127.7,307.3z"/>
</g>
</svg>
