<?xml version="1.0" encoding="utf-8"?>
<!-- Generator: Adobe Illustrator 23.0.3, SVG Export Plug-In . SVG Version: 6.00 Build 0)  -->
<svg version="1.1" id="Layer_1" xmlns="http://www.w3.org/2000/svg" xmlns:xlink="http://www.w3.org/1999/xlink" x="0px" y="0px"
	 viewBox="0 0 539.595 403.648" enable-background="new 0 0 539.595 403.648" xml:space="preserve">
<g>
	<path fill-rule="evenodd" clip-rule="evenodd" fill="#B12F57" d="M59.913,57.361c2.89-5.614,7.506-7.562,13.741-7.379
		c10.781,0.318,21.579,0.031,32.37,0.129c4.005,0.037,6.792,2.741,6.835,6.179c0.044,3.51-2.612,5.975-6.721,6.2
		c-1.09,0.059-2.185,0.025-3.278,0.025c-8.742,0.002-17.484-0.007-26.226,0.009c-1.337,0.003-2.675,0.114-4.216,0.185
		c0,79.677,0,159.097,0,238.985c1.724,0,3.317,0,4.91,0c38.657,0,77.314-0.011,115.969,0.036c1.862,0.002,4.28-0.094,5.452,0.956
		c1.613,1.447,3.396,4.15,3.063,5.933c-0.37,1.994-2.848,3.802-4.762,5.21c-0.916,0.675-2.647,0.303-4.01,0.303
		c-40.023,0.011-80.046-0.063-120.068,0.084c-6.16,0.023-10.585-1.93-13.06-7.688C59.913,223.471,59.913,140.416,59.913,57.361z"/>
	<path fill-rule="evenodd" clip-rule="evenodd" fill="#B12F57" d="M259.574,62.047c5.382-6.413,11.964-10.498,20.163-11.585
		c2.29-0.302,4.625-0.374,6.94-0.377c19.658-0.028,39.315-0.016,59.476-0.016c1.774-17.901,10.877-31.104,26.001-40.258
		c12.584-7.616,26.336-10.176,40.861-8.924c8.796,0.759,17.117,3.318,24.866,7.522c7.776,4.22,14.411,9.81,19.547,17.107
		c5.138,7.295,7.901,15.447,8.66,23.782c3.181,0.893,6.486,0.953,8.459,2.605c2.275,1.906,3.489,5.159,4.916,7.953
		c0.441,0.869,0.083,2.151,0.083,3.243c0.002,79.349,0.002,158.698,0,238.046c0,9.597-3.379,12.988-13.109,12.989
		c-79.62,0.013-159.242,0.007-238.864,0.006c-0.819,0-1.641,0.016-2.457-0.039c-4.099-0.277-6.753-2.767-6.692-6.249
		c0.061-3.449,2.86-6.089,6.864-6.126c9.146-0.083,18.293-0.026,28.096-0.026c0-1.73,0-3.299,0-4.868
		c0-71.29,0.002-142.581-0.001-213.873c-0.002-13.275-7.13-20.416-20.537-20.431c-31.275-0.036-62.55-0.01-93.826-0.016
		c-1.364,0-2.733,0.013-4.093-0.087c-3.575-0.261-5.557-2.436-5.746-5.793c-0.194-3.425,1.858-5.626,5.179-6.386
		c1.305-0.299,2.718-0.171,4.081-0.171c30.864-0.008,61.732,0.143,92.595-0.084C242.326,49.908,252.01,52.856,259.574,62.047z
		 M265.712,301.403c60.597,0,120.736,0,180.862,0c0-70.262,0-140.232,0-210.346c-7.791,4.032-7.791,4.032-7.791,11.975
		c0,9.015,0.023,18.031-0.01,27.047c-0.024,6.444-1.931,8.377-8.21,8.379c-49.45,0.006-98.901,0.006-148.351,0
		c-6.36,0-8.33-1.952-8.335-8.269c-0.013-15.709-0.01-31.419-0.003-47.128c0.005-8.855,3.581-12.489,12.343-12.497
		c18.034-0.016,36.065-0.005,54.094-0.005c3.109,0,6.217,0,9.397,0c-1.874-8.043-1.874-8.044-9.288-8.044
		c-17.895,0-35.791-0.018-53.686,0.006c-13.902,0.018-21.019,7.084-21.019,20.845c-0.006,71.171-0.003,142.34-0.003,213.512
		C265.712,298.342,265.712,299.804,265.712,301.403z M286.202,125.825c46.974,0,93.426,0,139.934,0c0-8.293,0-16.287,0-24.365
		c-0.771,0.058-1.334,0.014-1.849,0.152c-11.839,3.167-23.665,3.284-35.568,0.221c-1.298-0.334-3.195,0.358-4.393,1.181
		c-4.05,2.773-7.718,6.146-11.928,8.615c-1.917,1.125-5.308,1.632-7.036,0.656c-1.696-0.961-2.868-4.126-2.956-6.374
		c-0.152-3.905,0.602-7.867,1.175-11.776c0.905-6.162-3.176-11.122-9.353-11.125c-21.156-0.009-42.314-0.008-63.471,0.006
		c-1.445,0-2.889,0.135-4.555,0.219c0,1.684,0,2.903,0,4.123C286.202,100.044,286.202,112.73,286.202,125.825z M376.434,92.988
		c5.227-5.858,10.849-4.511,17.151-2.968c14.953,3.661,29.262,1.38,42.264-7.131c21.808-14.274,23.802-41.037,4.424-57.917
		c-18.98-16.531-51.556-15.803-69.818,1.561c-15.708,14.936-15.66,37.517,0.567,51.907C375.55,82.454,378.65,86.162,376.434,92.988z
		 M467.07,62.478c-1.008,0.197-1.67,0.174-1.736,0.362c-2.056,5.816-5.768,11.642-5.799,17.486
		c-0.4,72.251-0.261,144.506-0.261,216.76c0,1.446,0,2.892,0,4.318c2.999,0,5.381,0,7.796,0
		C467.07,221.675,467.07,142.237,467.07,62.478z"/>
	<path fill-rule="evenodd" clip-rule="evenodd" fill="#B12F57" d="M109.09,221.07c-3.237-4.992-5.746-9.321-12.289-8.163
		c-3.178,0.563-6.542,0.194-9.816,0.068c-4.227-0.163-6.531-2.49-6.543-6.734c-0.052-17.617-0.05-35.236-0.003-52.855
		c0.011-4.508,2.216-6.657,6.865-6.739c5.598-0.099,11.199-0.035,16.799-0.036c43.841-0.001,87.683-0.002,131.525,0.001
		c8.206,0.001,9.589,1.358,9.592,9.395c0.004,16.253,0.016,32.506-0.006,48.758c-0.009,6.282-2.004,8.216-8.374,8.235
		c-4.781,0.015-9.56,0.002-14.34,0.002c-7.503,0-8.307,0.498-12.434,8.044c7.864,0,15.449,0,23.035,0
		c11.843,0,12.12,0.281,12.12,12.235c0,17.347,0.013,34.692-0.006,52.038c-0.007,6.426-1.826,8.307-8.242,8.314
		c-25.54,0.032-51.08,0.033-76.62,0c-6.328-0.008-8.315-2.058-8.406-8.333c-0.081-5.485-0.575-6.542-7.41-15.585
		c-0.182,1.381-0.408,2.344-0.418,3.309c-0.042,4.506,0.082,9.017-0.057,13.518c-0.14,4.51-2.177,6.957-6.339,6.988
		c-17.069,0.127-34.141,0.122-51.211-0.01c-4.032-0.032-6.064-2.48-6.074-6.669c-0.04-19.668-0.043-39.334,0.001-59.001
		c0.009-4.472,2.203-6.666,6.88-6.748C94.36,220.977,101.404,221.07,109.09,221.07z M159.436,269.331
		c2.069-3.215,3.865-6.062,5.716-8.873c3.299-5.01,6.917-6.164,12.641-4.046c3.16,1.169,6.302,2.392,9.881,3.754
		c-0.23-3.353-0.493-6.183-0.607-9.019c-0.328-8.14,1.644-10.708,9.484-12.664c2.695-0.674,5.356-1.485,8.444-2.349
		c-1.426-1.775-2.435-3.046-3.462-4.303c-1.124-1.374-2.304-2.702-3.391-4.101c-3.331-4.293-3.361-8.351-0.016-12.663
		c2.139-2.755,4.406-5.413,6.962-8.538c-3.708-0.956-6.852-1.759-9.992-2.576c-5.795-1.512-8.215-4.611-8.07-10.578
		c0.084-3.469,0.374-6.933,0.594-10.798c-3.507,1.34-6.534,2.514-9.572,3.655c-6.168,2.316-9.527,1.195-13.168-4.394
		c-1.752-2.692-3.476-5.405-5.465-8.502c-2.037,3.187-3.77,5.945-5.55,8.671c-3.476,5.319-6.994,6.498-12.868,4.305
		c-3.146-1.174-6.269-2.411-9.907-3.814c0.297,3.837,0.623,7.08,0.786,10.333c0.307,6.1-2.181,9.511-7.999,11.093
		c-3.208,0.874-6.428,1.699-10.093,2.664c1.955,2.378,3.494,4.275,5.061,6.148c5.942,7.109,5.962,10.091,0.113,17.111
		c-1.623,1.949-3.217,3.921-5.193,6.331c3.486,0.915,6.342,1.668,9.2,2.411c7.054,1.834,9.376,5.078,8.86,12.42
		c-0.202,2.888-0.437,5.776-0.703,9.239c3.429-1.345,6.07-2.381,8.71-3.416c7.113-2.782,10.397-1.737,14.477,4.595
		C155.921,263.934,157.55,266.427,159.436,269.331z M232.624,200.55c0-14.153,0-27.734,0-41.378c-22.701,0-45.133,0-67.553,0
		c2.809,4.358,5.396,8.656,8.33,12.701c0.648,0.894,2.705,1.51,3.808,1.193c3.39-0.972,6.615-2.499,9.933-3.734
		c7.768-2.891,13.64,1.557,13.157,9.882c-0.252,4.322-0.391,8.652-0.568,12.734c6.917,2.991,14.933,2.075,19.971,8.38
		c0.242,0.301,1.039,0.211,1.579,0.213C224.949,200.557,228.614,200.55,232.624,200.55z M174.755,268.56
		c-2.654,4.172-5.153,8.102-7.907,12.434c22.401,0,44.016,0,65.717,0c0-15.92,0-31.627,0-47.353c-4.535,0-8.741,0-12.965,0
		c1.153,9.484-0.389,11.719-9.698,14.213c-1.576,0.423-3.135,1.026-4.739,1.198c-4.207,0.452-6.352,2.094-5.293,6.814
		c0.617,2.753,0.41,5.699,0.496,8.56c0.218,7.285-5.688,11.683-12.528,9.241C183.618,272.161,179.484,270.415,174.755,268.56z
		 M92.908,159.033c0,13.946,0,27.518,0,42.026c2.737-0.646,5.199-0.925,7.406-1.826c2.692-1.1,5.052-3.049,7.771-4.042
		c3.519-1.285,7.249-1.989,11.125-3.005c-0.249-4.279-0.374-8.222-0.729-12.145c-0.816-8.999,5.202-13.739,13.553-10.569
		c3.309,1.257,6.56,2.68,9.918,3.777c0.883,0.288,2.591,0.003,3.035-0.635c3.043-4.37,5.852-8.905,8.861-13.583
		C133.435,159.033,113.382,159.033,92.908,159.033z M92.809,280.975c13.023,0,25.638,0,38.405,0c0-2.476,0-4.721,0-7.001
		c-8.964,1.418-13.56-2.902-12.671-11.635c0.151-1.493,0.308-2.986,0.373-4.481c0.322-7.311,0.311-7.311-6.889-9.228
		c-1.051-0.28-2.098-0.57-3.151-0.847c-9.152-2.407-10.765-4.725-9.725-13.985c-2.094,0-4.174,0-6.343,0
		C92.809,249.606,92.809,265.113,92.809,280.975z"/>
	<path fill-rule="evenodd" clip-rule="evenodd" fill="#B12F57" d="M125.257,138.461c-12.281,0-24.564,0.012-36.845-0.005
		c-6.051-0.008-7.987-1.984-7.991-8.133c-0.01-17.195-0.01-34.389,0-51.584c0.005-6.058,2.038-8.163,8.03-8.169
		c24.563-0.022,49.127-0.023,73.691,0.001c5.868,0.006,8.153,2.275,8.169,8.215c0.044,17.195,0.044,34.39-0.002,51.584
		c-0.016,5.962-2.233,8.08-8.207,8.087C149.822,138.472,137.54,138.461,125.257,138.461z M157.464,83.341
		c-21.85,0-43.204,0-64.545,0c0,14.349,0,28.363,0,42.528c21.6,0,42.964,0,64.545,0C157.464,111.603,157.464,97.587,157.464,83.341z
		"/>
	<path fill-rule="evenodd" clip-rule="evenodd" fill="#B12F57" d="M211.643,138.461c-8.603,0-17.206,0.024-25.81-0.01
		c-5.191-0.021-7.602-2.24-7.626-7.418c-0.079-17.617-0.077-35.233-0.002-52.849c0.023-5.346,2.465-7.599,7.939-7.61
		c15.977-0.035,31.956-0.052,47.933,0.006c7.222,0.026,11.104,3.925,11.126,11.159c0.052,16.387,0.04,32.774,0.003,49.162
		c-0.013,5.512-2.136,7.539-7.754,7.554C228.85,138.479,220.246,138.461,211.643,138.461z M232.706,83.273
		c-14.076,0-27.772,0-41.569,0c0,14.346,0,28.425,0,42.596c14.008,0,27.697,0,41.569,0
		C232.706,111.622,232.706,97.626,232.706,83.273z"/>
	<path fill-rule="evenodd" clip-rule="evenodd" fill="#B12F57" d="M286.424,233.495c0,15.964,0,31.478,0,47.506
		c1.254,0.065,2.549,0.194,3.844,0.194c22.395,0.012,44.793,0.055,67.189-0.096c1.504-0.01,3.653-1.134,4.402-2.395
		c13.637-22.905,36.574-33.807,62.747-29.625c0.397,0.063,0.812,0.008,1.486,0.008c0-5.025,0-10.009,0-15.591
		c-4.959,0-9.954,0.007-14.949-0.003c-1.5-0.003-3.04,0.16-4.494-0.117c-3.366-0.637-5.446-2.828-5.358-6.234
		c0.087-3.347,1.981-5.843,5.569-5.911c8.734-0.163,17.478-0.214,26.207-0.002c3.873,0.094,5.651,2.521,5.686,7.033
		c0.074,9.97,0.027,19.94,0.03,29.908c0,9.013,0.02,18.026-0.01,27.039c-0.024,6.622-1.833,8.43-8.572,8.433
		c-39.604,0.02-79.207,0.01-118.81,0.01c-9.697,0-19.393,0.033-29.088-0.012c-6.596-0.03-8.425-1.934-8.428-8.609
		c-0.007-18.573-0.008-37.146,0.002-55.718c0.004-6.156,1.924-8.234,7.957-8.242c31.683-0.038,63.367-0.032,95.048-0.005
		c5.18,0.005,8.027,2.237,8.087,6.088c0.058,3.956-3.027,6.336-8.317,6.338c-28.405,0.008-56.81,0.004-85.216,0.004
		C289.839,233.495,288.239,233.495,286.424,233.495z M375.173,280.915c17.496,0,34.209,0,51.182,0
		c0-5.728,0.131-11.176-0.122-16.606c-0.044-0.981-1.584-2.566-2.595-2.708c-4.168-0.581-8.43-1.198-12.6-0.92
		C396.18,261.672,384.386,268.377,375.173,280.915z"/>
	<path fill-rule="evenodd" clip-rule="evenodd" fill="#B12F57" d="M391.034,146.613c13.235,0,26.467-0.024,39.701,0.011
		c6.12,0.016,8.022,1.921,8.035,8.085c0.033,16.78,0.04,33.561-0.005,50.342c-0.012,5.821-2.134,7.94-7.848,7.944
		c-26.332,0.021-52.663,0.02-78.993,0.002c-5.892-0.003-8.155-2.227-8.171-8.18c-0.042-16.781-0.049-33.563,0.006-50.343
		c0.018-5.746,2.18-7.831,7.982-7.849C364.838,146.585,377.937,146.613,391.034,146.613z M426.219,159.17
		c-23.423,0-46.412,0-69.598,0c0,13.776,0,27.336,0,41.06c23.32,0,46.401,0,69.598,0
		C426.219,186.435,426.219,172.967,426.219,159.17z"/>
	<path fill-rule="evenodd" clip-rule="evenodd" fill="#B12F57" d="M273.874,179.653c0-8.33-0.015-16.659,0.004-24.987
		c0.014-5.926,1.964-8.019,7.71-8.036c15.567-0.044,31.132-0.047,46.699,0.004c5.278,0.016,7.548,2.18,7.571,7.438
		c0.079,17.067,0.075,34.136,0.004,51.205c-0.021,5.417-2.417,7.705-7.813,7.715c-15.43,0.035-30.86,0.032-46.289,0.004
		c-5.71-0.01-7.864-2.204-7.88-7.944C273.855,196.584,273.874,188.117,273.874,179.653z M286.495,159.11c0,13.956,0,27.499,0,41.126
		c12.335,0,24.374,0,36.461,0c0-13.872,0-27.423,0-41.126C310.708,159.11,298.755,159.11,286.495,159.11z"/>
	<path fill-rule="evenodd" clip-rule="evenodd" fill="#B12F57" d="M406.197,47.463c-8.19,0-16.378,0.03-24.567-0.012
		c-4.598-0.023-7.54-2.567-7.472-6.315c0.065-3.637,2.775-6.015,7.278-6.03c16.514-0.057,33.029-0.057,49.542,0
		c4.504,0.016,7.203,2.393,7.268,6.042c0.068,3.734-2.885,6.281-7.484,6.304C422.574,47.492,414.384,47.463,406.197,47.463z"/>
	<path fill-rule="evenodd" clip-rule="evenodd" fill="#B12F57" d="M406.621,57.21c6.686,0,13.375-0.052,20.061,0.018
		c4.744,0.049,7.561,2.488,7.482,6.256c-0.078,3.705-3.03,6.091-7.706,6.099c-13.51,0.026-27.019,0.026-40.53,0
		c-4.677-0.009-7.611-2.395-7.684-6.117c-0.077-3.754,2.754-6.192,7.499-6.239C392.701,57.159,399.659,57.21,406.621,57.21z"/>
	<path fill-rule="evenodd" clip-rule="evenodd" fill="#B12F57" d="M159.085,216.211c-5.321,0-10.642,0.058-15.962-0.018
		c-4.578-0.064-7.574-2.632-7.578-6.306c-0.003-3.653,2.938-6.208,7.603-6.242c10.914-0.081,21.829-0.094,32.743,0.008
		c4.718,0.046,7.431,2.621,7.297,6.465c-0.126,3.609-2.896,6-7.322,6.071C170.274,216.278,164.679,216.211,159.085,216.211z"/>
	<path fill-rule="evenodd" clip-rule="evenodd" fill="#B12F57" d="M159.229,239.162c-5.322,0-10.642,0.049-15.963-0.014
		c-4.641-0.055-7.617-2.495-7.722-6.167c-0.104-3.645,2.863-6.343,7.461-6.38c10.913-0.091,21.828-0.092,32.742-0.002
		c4.792,0.04,7.482,2.481,7.435,6.326c-0.044,3.77-2.879,6.163-7.583,6.221C170.143,239.214,164.685,239.162,159.229,239.162z"/>
</g>
<g>
	<path fill="#171C25" d="M84.1,358.173H48.516v-13.496c0-3.926-0.38-6.372-1.141-7.347c-0.761-0.975-2.437-1.463-5.029-1.463
		c-2.93,0-4.79,0.592-5.579,1.775c-0.789,1.183-1.183,3.742-1.183,7.675v36.073c0,3.774,0.394,6.236,1.183,7.387
		c0.789,1.151,2.564,1.727,5.325,1.727c2.648,0,4.381-0.576,5.198-1.727c0.817-1.159,1.226-3.87,1.226-8.131v-9.762H84.1v3.03
		c0,8.035-1,13.735-3.001,17.101c-2,3.358-6.424,6.308-13.27,8.834c-6.846,2.534-15.285,3.798-25.315,3.798
		c-10.425,0-19.018-1.071-25.78-3.214c-6.762-2.143-11.242-5.109-13.439-8.898C1.099,387.746,0,382.046,0,374.435v-22.69
		c0-5.596,0.338-9.794,1.014-12.592s2.691-5.493,6.043-8.083c3.353-2.59,8.002-4.629,13.946-6.116
		c5.945-1.487,12.777-2.231,20.497-2.231c10.481,0,19.13,1.151,25.949,3.454c6.818,2.295,11.298,5.165,13.439,8.595
		c2.141,3.438,3.212,8.779,3.212,16.022V358.173z"/>
	<path fill="#171C25" d="M178.175,369.83c0,7.803-0.324,13.328-0.972,16.574s-2.677,6.212-6.086,8.898
		c-3.409,2.686-8.016,4.749-13.82,6.188c-5.804,1.439-12.566,2.159-20.286,2.159c-7.325,0-13.904-0.68-19.736-2.039
		c-5.832-1.359-10.523-3.398-14.073-6.116c-3.55-2.718-5.663-5.676-6.339-8.874c-0.676-3.198-1.014-8.794-1.014-16.789v-13.288
		c0-7.803,0.324-13.328,0.972-16.574s2.677-6.212,6.086-8.898c3.409-2.686,8.016-4.749,13.82-6.188
		c5.804-1.439,12.566-2.159,20.286-2.159c7.325,0,13.904,0.68,19.736,2.039s10.523,3.398,14.073,6.116
		c3.55,2.718,5.663,5.676,6.339,8.874s1.014,8.794,1.014,16.789V369.83z M142.59,344.31c0-3.614-0.352-5.924-1.057-6.932
		c-0.704-1.007-2.155-1.511-4.353-1.511c-1.86,0-3.282,0.408-4.268,1.223s-1.479,3.222-1.479,7.219v36.265
		c0,4.509,0.324,7.291,0.972,8.347c0.648,1.055,2.155,1.583,4.522,1.583c2.423,0,3.973-0.608,4.649-1.823
		c0.676-1.215,1.014-4.109,1.014-8.683V344.31z"/>
	<path fill="#171C25" d="M301.24,324.354v77.663h-31.104l-0.042-52.431l-12.383,52.431H235.65l-13.059-51.232l-0.042,51.232h-31.104
		v-77.663h46.044c1.366,4.669,2.775,10.178,4.226,16.51l5.05,19.756l8.178-36.265H301.24z"/>
	<path fill="#171C25" d="M351.109,324.354v77.663h-35.584v-77.663H351.109z"/>
	<path fill="#171C25" d="M448.479,358.173h-35.584v-13.496c0-3.926-0.38-6.372-1.141-7.347c-0.761-0.975-2.437-1.463-5.029-1.463
		c-2.93,0-4.79,0.592-5.579,1.775s-1.183,3.742-1.183,7.675v36.073c0,3.774,0.394,6.236,1.183,7.387s2.564,1.727,5.325,1.727
		c2.648,0,4.381-0.576,5.198-1.727c0.817-1.159,1.226-3.87,1.226-8.131v-9.762h35.584v3.03c0,8.035-1,13.735-3.001,17.101
		c-2,3.358-6.424,6.308-13.27,8.834c-6.846,2.534-15.285,3.798-25.315,3.798c-10.424,0-19.018-1.071-25.78-3.214
		c-6.762-2.143-11.242-5.109-13.439-8.898c-2.198-3.79-3.296-9.49-3.296-17.101v-22.69c0-5.596,0.338-9.794,1.014-12.592
		c0.676-2.798,2.691-5.493,6.043-8.083c3.353-2.59,8.002-4.629,13.946-6.116c5.945-1.487,12.777-2.231,20.497-2.231
		c10.481,0,19.13,1.151,25.949,3.454c6.818,2.295,11.298,5.165,13.439,8.595c2.141,3.438,3.212,8.779,3.212,16.022V358.173z"/>
	<path fill="#171C25" d="M536.637,347.859h-33.049v-5.756c0-2.686-0.423-4.397-1.268-5.133c-0.845-0.736-2.254-1.103-4.226-1.103
		c-2.141,0-3.761,0.496-4.86,1.487c-1.099,0.999-1.648,2.502-1.648,4.517c0,2.59,0.62,4.541,1.852,5.852
		c1.176,1.311,4.529,2.894,10.058,4.749c15.841,5.333,25.815,9.714,29.928,13.136c4.113,3.422,6.17,8.938,6.17,16.55
		c0,5.533-1.141,9.61-3.423,12.232c-2.282,2.622-6.691,4.821-13.228,6.596c-6.536,1.775-14.144,2.662-22.821,2.662
		c-9.523,0-17.651-1.023-24.385-3.07s-11.143-4.653-13.228-7.819s-3.127-7.659-3.127-13.48v-5.085h33.049v9.45
		c0,2.91,0.465,4.781,1.395,5.612c0.93,0.831,2.578,1.247,4.945,1.247c2.367,0,4.128-0.528,5.283-1.583
		c1.155-1.055,1.733-2.622,1.733-4.701c0-4.573-1.099-7.563-3.296-8.97c-2.254-1.407-7.804-3.758-16.651-7.052
		c-8.847-3.326-14.707-5.74-17.581-7.243s-5.255-3.582-7.142-6.236c-1.888-2.654-2.832-6.044-2.832-10.17
		c0-5.948,1.338-10.298,4.015-13.048c2.677-2.75,7.001-4.901,12.974-6.452s13.186-2.327,21.638-2.327
		c9.241,0,17.116,0.847,23.624,2.542c6.508,1.695,10.819,3.83,12.932,6.404c2.113,2.574,3.17,6.948,3.17,13.12V347.859z"/>
</g>
</svg>
