<?xml version="1.0" encoding="utf-8"?>
<!-- Generator: Adobe Illustrator 23.0.3, SVG Export Plug-In . SVG Version: 6.00 Build 0)  -->
<svg version="1.1" id="Layer_1" xmlns="http://www.w3.org/2000/svg" xmlns:xlink="http://www.w3.org/1999/xlink" x="0px" y="0px"
	 viewBox="0 0 539.6 403.6" style="enable-background:new 0 0 539.6 403.6;" xml:space="preserve">
<style type="text/css">
	.st0{fill-rule:evenodd;clip-rule:evenodd;fill:#B12F57;}
	.st1{fill:#171C25;}
</style>
<g>
	<path class="st0" d="M106.7,91c2.2-4.3,5.8-5.8,10.6-5.7c8.3,0.2,16.7,0,25,0.1c3.1,0,5.2,2.1,5.3,4.8c0,2.7-2,4.6-5.2,4.8
		c-0.8,0-1.7,0-2.5,0c-6.8,0-13.5,0-20.3,0c-1,0-2.1,0.1-3.3,0.1c0,61.6,0,123,0,184.7c1.3,0,2.6,0,3.8,0c29.9,0,59.8,0,89.6,0
		c1.4,0,3.3-0.1,4.2,0.7c1.2,1.1,2.6,3.2,2.4,4.6c-0.3,1.5-2.2,2.9-3.7,4c-0.7,0.5-2,0.2-3.1,0.2c-30.9,0-61.9,0-92.8,0.1
		c-4.8,0-8.2-1.5-10.1-5.9C106.7,219.4,106.7,155.2,106.7,91z"/>
	<path class="st0" d="M261,94.6c4.2-5,9.2-8.1,15.6-9c1.8-0.2,3.6-0.3,5.4-0.3c15.2,0,30.4,0,46,0c1.4-13.8,8.4-24,20.1-31.1
		c9.7-5.9,20.4-7.9,31.6-6.9c6.8,0.6,13.2,2.6,19.2,5.8c6,3.3,11.1,7.6,15.1,13.2c4,5.6,6.1,11.9,6.7,18.4c2.5,0.7,5,0.7,6.5,2
		c1.8,1.5,2.7,4,3.8,6.1c0.3,0.7,0.1,1.7,0.1,2.5c0,61.3,0,122.7,0,184c0,7.4-2.6,10-10.1,10c-61.5,0-123.1,0-184.6,0
		c-0.6,0-1.3,0-1.9,0c-3.2-0.2-5.2-2.1-5.2-4.8c0-2.7,2.2-4.7,5.3-4.7c7.1-0.1,14.1,0,21.7,0c0-1.3,0-2.5,0-3.8
		c0-55.1,0-110.2,0-165.3c0-10.3-5.5-15.8-15.9-15.8c-24.2,0-48.3,0-72.5,0c-1.1,0-2.1,0-3.2-0.1c-2.8-0.2-4.3-1.9-4.4-4.5
		c-0.1-2.6,1.4-4.3,4-4.9c1-0.2,2.1-0.1,3.2-0.1c23.9,0,47.7,0.1,71.6-0.1C247.7,85.2,255.2,87.5,261,94.6z M265.8,279.6
		c46.8,0,93.3,0,139.8,0c0-54.3,0-108.4,0-162.6c-6,3.1-6,3.1-6,9.3c0,7,0,13.9,0,20.9c0,5-1.5,6.5-6.3,6.5c-38.2,0-76.4,0-114.7,0
		c-4.9,0-6.4-1.5-6.4-6.4c0-12.1,0-24.3,0-36.4c0-6.8,2.8-9.7,9.5-9.7c13.9,0,27.9,0,41.8,0c2.4,0,4.8,0,7.3,0
		c-1.4-6.2-1.4-6.2-7.2-6.2c-13.8,0-27.7,0-41.5,0c-10.7,0-16.2,5.5-16.2,16.1c0,55,0,110,0,165
		C265.8,277.2,265.8,278.4,265.8,279.6z M281.6,143.9c36.3,0,72.2,0,108.2,0c0-6.4,0-12.6,0-18.8c-0.6,0-1,0-1.4,0.1
		c-9.2,2.4-18.3,2.5-27.5,0.2c-1-0.3-2.5,0.3-3.4,0.9c-3.1,2.1-6,4.8-9.2,6.7c-1.5,0.9-4.1,1.3-5.4,0.5c-1.3-0.7-2.2-3.2-2.3-4.9
		c-0.1-3,0.5-6.1,0.9-9.1c0.7-4.8-2.5-8.6-7.2-8.6c-16.4,0-32.7,0-49.1,0c-1.1,0-2.2,0.1-3.5,0.2c0,1.3,0,2.2,0,3.2
		C281.6,124,281.6,133.8,281.6,143.9z M351.3,118.5c4-4.5,8.4-3.5,13.3-2.3c11.6,2.8,22.6,1.1,32.7-5.5c16.9-11,18.4-31.7,3.4-44.8
		c-14.7-12.8-39.8-12.2-54,1.2c-12.1,11.5-12.1,29,0.4,40.1C350.7,110.4,353.1,113.2,351.3,118.5z M421.4,94.9
		c-0.8,0.2-1.3,0.1-1.3,0.3c-1.6,4.5-4.5,9-4.5,13.5c-0.3,55.8-0.2,111.7-0.2,167.5c0,1.1,0,2.2,0,3.3c2.3,0,4.2,0,6,0
		C421.4,218,421.4,156.6,421.4,94.9z"/>
	<path class="st0" d="M144.7,217.5c-2.5-3.9-4.4-7.2-9.5-6.3c-2.5,0.4-5.1,0.1-7.6,0.1c-3.3-0.1-5-1.9-5.1-5.2c0-13.6,0-27.2,0-40.8
		c0-3.5,1.7-5.1,5.3-5.2c4.3-0.1,8.7,0,13,0c33.9,0,67.8,0,101.7,0c6.3,0,7.4,1,7.4,7.3c0,12.6,0,25.1,0,37.7c0,4.9-1.5,6.4-6.5,6.4
		c-3.7,0-7.4,0-11.1,0c-5.8,0-6.4,0.4-9.6,6.2c6.1,0,11.9,0,17.8,0c9.2,0,9.4,0.2,9.4,9.5c0,13.4,0,26.8,0,40.2c0,5-1.4,6.4-6.4,6.4
		c-19.7,0-39.5,0-59.2,0c-4.9,0-6.4-1.6-6.5-6.4c-0.1-4.2-0.4-5.1-5.7-12c-0.1,1.1-0.3,1.8-0.3,2.6c0,3.5,0.1,7,0,10.4
		c-0.1,3.5-1.7,5.4-4.9,5.4c-13.2,0.1-26.4,0.1-39.6,0c-3.1,0-4.7-1.9-4.7-5.2c0-15.2,0-30.4,0-45.6c0-3.5,1.7-5.2,5.3-5.2
		C133.3,217.4,138.8,217.5,144.7,217.5z M183.6,254.8c1.6-2.5,3-4.7,4.4-6.9c2.5-3.9,5.3-4.8,9.8-3.1c2.4,0.9,4.9,1.8,7.6,2.9
		c-0.2-2.6-0.4-4.8-0.5-7c-0.3-6.3,1.3-8.3,7.3-9.8c2.1-0.5,4.1-1.1,6.5-1.8c-1.1-1.4-1.9-2.4-2.7-3.3c-0.9-1.1-1.8-2.1-2.6-3.2
		c-2.6-3.3-2.6-6.5,0-9.8c1.7-2.1,3.4-4.2,5.4-6.6c-2.9-0.7-5.3-1.4-7.7-2c-4.5-1.2-6.3-3.6-6.2-8.2c0.1-2.7,0.3-5.4,0.5-8.3
		c-2.7,1-5,1.9-7.4,2.8c-4.8,1.8-7.4,0.9-10.2-3.4c-1.4-2.1-2.7-4.2-4.2-6.6c-1.6,2.5-2.9,4.6-4.3,6.7c-2.7,4.1-5.4,5-9.9,3.3
		c-2.4-0.9-4.8-1.9-7.7-2.9c0.2,3,0.5,5.5,0.6,8c0.2,4.7-1.7,7.4-6.2,8.6c-2.5,0.7-5,1.3-7.8,2.1c1.5,1.8,2.7,3.3,3.9,4.8
		c4.6,5.5,4.6,7.8,0.1,13.2c-1.3,1.5-2.5,3-4,4.9c2.7,0.7,4.9,1.3,7.1,1.9c5.5,1.4,7.2,3.9,6.8,9.6c-0.2,2.2-0.3,4.5-0.5,7.1
		c2.7-1,4.7-1.8,6.7-2.6c5.5-2.2,8-1.3,11.2,3.6C180.9,250.6,182.2,252.6,183.6,254.8z M240.2,201.6c0-10.9,0-21.4,0-32
		c-17.5,0-34.9,0-52.2,0c2.2,3.4,4.2,6.7,6.4,9.8c0.5,0.7,2.1,1.2,2.9,0.9c2.6-0.8,5.1-1.9,7.7-2.9c6-2.2,10.5,1.2,10.2,7.6
		c-0.2,3.3-0.3,6.7-0.4,9.8c5.3,2.3,11.5,1.6,15.4,6.5c0.2,0.2,0.8,0.2,1.2,0.2C234.3,201.7,237.1,201.6,240.2,201.6z M195.5,254.2
		c-2.1,3.2-4,6.3-6.1,9.6c17.3,0,34,0,50.8,0c0-12.3,0-24.4,0-36.6c-3.5,0-6.8,0-10,0c0.9,7.3-0.3,9.1-7.5,11
		c-1.2,0.3-2.4,0.8-3.7,0.9c-3.3,0.3-4.9,1.6-4.1,5.3c0.5,2.1,0.3,4.4,0.4,6.6c0.2,5.6-4.4,9-9.7,7.1
		C202.3,257,199.1,255.6,195.5,254.2z M132.2,169.6c0,10.8,0,21.3,0,32.5c2.1-0.5,4-0.7,5.7-1.4c2.1-0.9,3.9-2.4,6-3.1
		c2.7-1,5.6-1.5,8.6-2.3c-0.2-3.3-0.3-6.4-0.6-9.4c-0.6-7,4-10.6,10.5-8.2c2.6,1,5.1,2.1,7.7,2.9c0.7,0.2,2,0,2.3-0.5
		c2.4-3.4,4.5-6.9,6.8-10.5C163.5,169.6,148,169.6,132.2,169.6z M132.1,263.8c10.1,0,19.8,0,29.7,0c0-1.9,0-3.6,0-5.4
		c-6.9,1.1-10.5-2.2-9.8-9c0.1-1.2,0.2-2.3,0.3-3.5c0.2-5.7,0.2-5.7-5.3-7.1c-0.8-0.2-1.6-0.4-2.4-0.7c-7.1-1.9-8.3-3.7-7.5-10.8
		c-1.6,0-3.2,0-4.9,0C132.1,239.6,132.1,251.5,132.1,263.8z"/>
	<path class="st0" d="M157.2,153.7c-9.5,0-19,0-28.5,0c-4.7,0-6.2-1.5-6.2-6.3c0-13.3,0-26.6,0-39.9c0-4.7,1.6-6.3,6.2-6.3
		c19,0,38,0,57,0c4.5,0,6.3,1.8,6.3,6.3c0,13.3,0,26.6,0,39.9c0,4.6-1.7,6.2-6.3,6.2C176.2,153.7,166.7,153.7,157.2,153.7z
		 M182.1,111.1c-16.9,0-33.4,0-49.9,0c0,11.1,0,21.9,0,32.9c16.7,0,33.2,0,49.9,0C182.1,132.9,182.1,122.1,182.1,111.1z"/>
	<path class="st0" d="M224,153.7c-6.6,0-13.3,0-19.9,0c-4,0-5.9-1.7-5.9-5.7c-0.1-13.6-0.1-27.2,0-40.8c0-4.1,1.9-5.9,6.1-5.9
		c12.3,0,24.7,0,37,0c5.6,0,8.6,3,8.6,8.6c0,12.7,0,25.3,0,38c0,4.3-1.7,5.8-6,5.8C237.3,153.7,230.6,153.7,224,153.7z M240.3,111
		c-10.9,0-21.5,0-32.1,0c0,11.1,0,22,0,32.9c10.8,0,21.4,0,32.1,0C240.3,132.9,240.3,122.1,240.3,111z"/>
	<path class="st0" d="M281.8,227.1c0,12.3,0,24.3,0,36.7c1,0.1,2,0.1,3,0.1c17.3,0,34.6,0,51.9-0.1c1.2,0,2.8-0.9,3.4-1.9
		c10.5-17.7,28.3-26.1,48.5-22.9c0.3,0,0.6,0,1.1,0c0-3.9,0-7.7,0-12.1c-3.8,0-7.7,0-11.6,0c-1.2,0-2.3,0.1-3.5-0.1
		c-2.6-0.5-4.2-2.2-4.1-4.8c0.1-2.6,1.5-4.5,4.3-4.6c6.7-0.1,13.5-0.2,20.3,0c3,0.1,4.4,1.9,4.4,5.4c0.1,7.7,0,15.4,0,23.1
		c0,7,0,13.9,0,20.9c0,5.1-1.4,6.5-6.6,6.5c-30.6,0-61.2,0-91.8,0c-7.5,0-15,0-22.5,0c-5.1,0-6.5-1.5-6.5-6.7c0-14.4,0-28.7,0-43.1
		c0-4.8,1.5-6.4,6.1-6.4c24.5,0,49,0,73.5,0c4,0,6.2,1.7,6.3,4.7c0,3.1-2.3,4.9-6.4,4.9c-22,0-43.9,0-65.9,0
		C284.4,227.1,283.2,227.1,281.8,227.1z M350.4,263.8c13.5,0,26.4,0,39.6,0c0-4.4,0.1-8.6-0.1-12.8c0-0.8-1.2-2-2-2.1
		c-3.2-0.4-6.5-0.9-9.7-0.7C366.6,248.9,357.5,254.1,350.4,263.8z"/>
	<path class="st0" d="M362.6,160c10.2,0,20.5,0,30.7,0c4.7,0,6.2,1.5,6.2,6.2c0,13,0,25.9,0,38.9c0,4.5-1.6,6.1-6.1,6.1
		c-20.4,0-40.7,0-61.1,0c-4.6,0-6.3-1.7-6.3-6.3c0-13,0-25.9,0-38.9c0-4.4,1.7-6.1,6.2-6.1C342.4,159.9,352.5,160,362.6,160z
		 M389.8,169.7c-18.1,0-35.9,0-53.8,0c0,10.6,0,21.1,0,31.7c18,0,35.9,0,53.8,0C389.8,190.7,389.8,180.3,389.8,169.7z"/>
	<path class="st0" d="M272.1,185.5c0-6.4,0-12.9,0-19.3c0-4.6,1.5-6.2,6-6.2c12,0,24.1,0,36.1,0c4.1,0,5.8,1.7,5.9,5.7
		c0.1,13.2,0.1,26.4,0,39.6c0,4.2-1.9,6-6,6c-11.9,0-23.9,0-35.8,0c-4.4,0-6.1-1.7-6.1-6.1C272.1,198.6,272.1,192,272.1,185.5z
		 M281.8,169.6c0,10.8,0,21.3,0,31.8c9.5,0,18.8,0,28.2,0c0-10.7,0-21.2,0-31.8C300.6,169.6,291.3,169.6,281.8,169.6z"/>
	<path class="st0" d="M374.4,83.3c-6.3,0-12.7,0-19,0c-3.6,0-5.8-2-5.8-4.9c0-2.8,2.1-4.6,5.6-4.7c12.8,0,25.5,0,38.3,0
		c3.5,0,5.6,1.8,5.6,4.7c0.1,2.9-2.2,4.9-5.8,4.9C387,83.4,380.7,83.3,374.4,83.3z"/>
	<path class="st0" d="M374.7,90.9c5.2,0,10.3,0,15.5,0c3.7,0,5.8,1.9,5.8,4.8c-0.1,2.9-2.3,4.7-6,4.7c-10.4,0-20.9,0-31.3,0
		c-3.6,0-5.9-1.9-5.9-4.7c-0.1-2.9,2.1-4.8,5.8-4.8C363.9,90.8,369.3,90.9,374.7,90.9z"/>
	<path class="st0" d="M183.4,213.8c-4.1,0-8.2,0-12.3,0c-3.5,0-5.9-2-5.9-4.9c0-2.8,2.3-4.8,5.9-4.8c8.4-0.1,16.9-0.1,25.3,0
		c3.6,0,5.7,2,5.6,5c-0.1,2.8-2.2,4.6-5.7,4.7C192,213.8,187.7,213.8,183.4,213.8z"/>
	<path class="st0" d="M183.5,231.5c-4.1,0-8.2,0-12.3,0c-3.6,0-5.9-1.9-6-4.8c-0.1-2.8,2.2-4.9,5.8-4.9c8.4-0.1,16.9-0.1,25.3,0
		c3.7,0,5.8,1.9,5.7,4.9c0,2.9-2.2,4.8-5.9,4.8C191.9,231.5,187.7,231.5,183.5,231.5z"/>
</g>
<g>
	<g>
		<path class="st1" d="M25.7,364.4c-2.9-2-5.2-4.3-5.7-8.1c-0.5-4.2,2-6.8,4.8-9.1c7.7-6.2,15.8-12,23.3-18.4c3.2-2.7,5.5-6.4,8-9.8
			c4.3-6,8.9-11.8,12.6-18.1c2.6-4.5,4-9.8,5.9-14.7c-0.3-0.2-0.6-0.5-0.9-0.7c-3.1,1.3-6.2,2.6-9.3,3.9
			c-11.5,5.2-23,10.5-34.5,15.7c-8,3.6-16,7.1-24,10.4c-3,1.2-5.7-0.8-5.7-4c0-16.9,0-33.8,0-50.7c0-2.4,1.1-3.8,3.5-4
			c2.6-0.3,5.3-0.6,7.9-0.6c25.2,0,50.4,0,76.1,0C88.4,263,91,269,97.2,273c6.1,3.9,12.5,3.9,19.4,1c-1.6,6.8-3.1,13.2-4.7,19.7
			c-0.6,2.4-1,4.9-1.7,7.4c-0.5,1.7,0,2.6,1.7,3.3c7.1,2.6,14.1,5.5,21.1,8.2c2.9,1.1,4.4,3.3,5.3,5.9c3.6,10.2,7.1,20.4,10.6,30.6
			c2.9,8.4,2.4,10.2-4,15.4c-2.1,0-4.3,0-6.4,0c-1.9-2.1-4.5-4-5.5-6.5c-3.3-8.3-6.3-16.7-8.8-25.2c-1.2-4.1-3.4-5.9-7.2-7.2
			c-6.4-2.1-12.6-4.6-18.8-7.2c-1.4-0.6-3.5-1.8-3.6-3c-0.4-3.2-0.3-6.6,0.2-9.8c0.6-4.3,1.9-8.4,2.8-12.7
			c-2.3,3.7-3.6,7.9-5.7,11.6c-2.1,3.8-1.7,7.6-1.5,11.5c0.5,10.2,1.3,20.3,1.8,30.4c0.2,4.4-2.3,7.4-5.7,7.7
			c-7.3,0.6-8.9-2.5-9.3-6.9c-1-10.6-1.3-21.4-2.1-32c-0.5-7.1,0.7-13.6,4.1-19.9c1.3-2.3,2-5,3-7.4c-0.3-0.1-0.5-0.2-0.8-0.3
			c-2.4,3.7-4.8,7.4-7.1,11.1c-1.3,2.2-2.9,4.5-3.3,7c-0.5,3.7-0.9,7.8,0.1,11.3c2.9,10.5-2.5,17.8-9.4,23.9
			c-9.5,8.4-19.9,15.8-29.8,23.6C29.9,364.4,27.8,364.4,25.7,364.4z"/>
		<path class="st1" d="M168.1,217.5c2.5,1.9,5,3.7,5,7.3c0,3.7-2.1,6.4-6.1,8c-9.4,3.8-19,7.4-28.1,11.8c-3.4,1.6-5.9,5.2-8.8,8
			c-0.9,0.9-1.6,1.9-2.1,2.6c-2.5-4.7-5-9.2-7.7-14.3c3.7-6.6,10.8-10.1,18.5-13c8.2-3.1,16.1-6.9,24.1-10.3
			C164.7,217.5,166.4,217.5,168.1,217.5z"/>
		<path class="st1" d="M122.4,256.8c0.9,7.8-6.5,15.1-15.2,15.1c-7.3,0-15.1-6-14.8-15.6c0.3-9.8,7.1-14.8,15.1-14.8
			C114.9,241.4,122.9,246.7,122.4,256.8z"/>
	</g>
	<g>
		<path class="st1" d="M326.7,403.6c2.9-2,5.2-4.3,5.7-8.1c0.5-4.2-2-6.8-4.8-9.1c-7.7-6.2-15.8-12-23.3-18.4
			c-3.2-2.7-5.5-6.4-8-9.8c-4.3-6-8.9-11.8-12.6-18.1c-2.6-4.5-4-9.8-5.9-14.7c0.3-0.2,0.6-0.5,0.9-0.7c3.1,1.3,6.2,2.6,9.3,3.9
			c11.5,5.2,23,10.5,34.5,15.7c8,3.6,16,7.1,24,10.4c3,1.2,5.7-0.8,5.7-4c0-16.9,0-33.8,0-50.7c0-2.4-1.1-3.8-3.5-4
			c-2.6-0.3-5.3-0.6-7.9-0.6c-25.2,0-50.4,0-76.1,0c-0.9,6.9-3.5,12.9-9.6,16.8c-6.1,3.9-12.5,3.9-19.4,1c1.6,6.8,3.1,13.2,4.7,19.7
			c0.6,2.4,1,4.9,1.7,7.4c0.5,1.7,0,2.6-1.7,3.3c-7.1,2.6-14.1,5.5-21.1,8.2c-2.9,1.1-4.4,3.3-5.3,5.9c-3.6,10.2-7.1,20.4-10.6,30.6
			c-2.9,8.4-2.4,10.2,4,15.4c2.1,0,4.3,0,6.4,0c1.9-2.1,4.5-4,5.5-6.5c3.3-8.3,6.3-16.7,8.8-25.2c1.2-4.1,3.4-5.9,7.2-7.2
			c6.4-2.1,12.6-4.6,18.8-7.2c1.4-0.6,3.5-1.8,3.6-3c0.4-3.2,0.3-6.6-0.2-9.8c-0.6-4.3-1.9-8.4-2.8-12.7c2.3,3.7,3.6,7.9,5.7,11.6
			c2.1,3.8,1.7,7.6,1.5,11.5c-0.5,10.2-1.3,20.3-1.8,30.4c-0.2,4.4,2.3,7.4,5.7,7.7c7.3,0.6,8.9-2.5,9.3-6.9c1-10.6,1.3-21.4,2.1-32
			c0.5-7.1-0.7-13.6-4.1-19.9c-1.3-2.3-2-5-3-7.4c0.3-0.1,0.5-0.2,0.8-0.3c2.4,3.7,4.8,7.4,7.1,11.1c1.3,2.2,2.9,4.5,3.3,7
			c0.5,3.7,0.9,7.8-0.1,11.3c-2.9,10.5,2.5,17.8,9.4,23.9c9.5,8.4,19.9,15.8,29.8,23.6C322.5,403.6,324.6,403.6,326.7,403.6z"/>
		<path class="st1" d="M184.3,256.7c-2.5,1.9-5,3.7-5,7.3c0,3.7,2.1,6.4,6.1,8c9.4,3.8,19,7.4,28.1,11.8c3.4,1.6,5.9,5.2,8.8,8
			c0.9,0.9,1.6,1.9,2.1,2.6c2.5-4.7,5-9.2,7.7-14.3c-3.7-6.6-10.8-10.1-18.5-13c-8.2-3.1-16.1-6.9-24.1-10.3
			C187.7,256.7,186,256.7,184.3,256.7z"/>
		<path class="st1" d="M230,296c-0.9,7.8,6.5,15.1,15.2,15.1c7.3,0,15.1-6,14.8-15.6c-0.3-9.8-7.1-14.8-15.1-14.8
			C237.5,280.7,229.5,285.9,230,296z"/>
	</g>
</g>
<g>
	<g>
		<path class="st1" d="M516,148.8c2.9-2,5.2-4.3,5.7-8.1c0.5-4.2-2-6.8-4.8-9.1c-7.7-6.2-15.8-12-23.3-18.4c-3.2-2.7-5.5-6.4-8-9.8
			c-4.3-6-8.9-11.8-12.6-18.1c-2.6-4.5-4-9.8-5.9-14.7c0.3-0.2,0.6-0.5,0.9-0.7c3.1,1.3,6.2,2.6,9.3,3.9c11.5,5.2,23,10.5,34.5,15.7
			c8,3.6,16,7.1,24,10.4c3,1.2,5.7-0.8,5.7-4c0-16.9,0-33.8,0-50.7c0-2.4-1.1-3.8-3.5-4c-2.6-0.3-5.3-0.6-7.9-0.6
			c-25.2,0-50.4,0-76.1,0c-0.9,6.9-3.5,12.9-9.6,16.8c-6.1,3.9-12.5,3.9-19.4,1c1.6,6.8,3.1,13.2,4.7,19.7c0.6,2.4,1,4.9,1.7,7.4
			c0.5,1.7,0,2.6-1.7,3.3c-7.1,2.6-14.1,5.5-21.1,8.2c-2.9,1.1-4.4,3.3-5.3,5.9c-3.6,10.2-7.1,20.4-10.6,30.6
			c-2.9,8.4-2.4,10.2,4,15.4c2.1,0,4.3,0,6.4,0c1.9-2.1,4.5-4,5.5-6.5c3.3-8.3,6.3-16.7,8.8-25.2c1.2-4.1,3.4-5.9,7.2-7.2
			c6.4-2.1,12.6-4.6,18.8-7.2c1.4-0.6,3.5-1.8,3.6-3c0.4-3.2,0.3-6.6-0.2-9.8c-0.6-4.3-1.9-8.4-2.8-12.7c2.3,3.7,3.6,7.9,5.7,11.6
			c2.1,3.8,1.7,7.6,1.5,11.5c-0.5,10.2-1.3,20.3-1.8,30.4c-0.2,4.4,2.3,7.4,5.7,7.7c7.3,0.6,8.9-2.5,9.3-6.9c1-10.6,1.3-21.4,2.1-32
			c0.5-7.1-0.7-13.6-4.1-19.9c-1.3-2.3-2-5-3-7.4c0.3-0.1,0.5-0.2,0.8-0.3c2.4,3.7,4.8,7.4,7.1,11.1c1.3,2.2,2.9,4.5,3.3,7
			c0.5,3.7,0.9,7.8-0.1,11.3c-2.9,10.5,2.5,17.8,9.4,23.9c9.5,8.4,19.9,15.8,29.8,23.6C511.7,148.8,513.8,148.8,516,148.8z"/>
		<path class="st1" d="M373.5,1.9c-2.5,1.9-5,3.7-5,7.3c0,3.7,2.1,6.4,6.1,8c9.4,3.8,19,7.4,28.1,11.8c3.4,1.6,5.9,5.2,8.8,8
			c0.9,0.9,1.6,1.9,2.1,2.6c2.5-4.7,5-9.2,7.7-14.3c-3.7-6.6-10.8-10.1-18.5-13c-8.2-3.1-16.1-6.9-24.1-10.3
			C377,1.9,375.2,1.9,373.5,1.9z"/>
		<path class="st1" d="M419.2,41.2c-0.9,7.8,6.5,15.1,15.2,15.1c7.3,0,15.1-6,14.8-15.6c-0.3-9.8-7.1-14.8-15.1-14.8
			C426.7,25.8,418.7,31.1,419.2,41.2z"/>
	</g>
	<g>
		<path class="st1" d="M214.9,188c-2.9-2-5.2-4.3-5.7-8.1c-0.5-4.2,2-6.8,4.8-9.1c7.7-6.2,15.8-12,23.3-18.4c3.2-2.7,5.5-6.4,8-9.8
			c4.3-6,8.9-11.8,12.6-18.1c2.6-4.5,4-9.8,5.9-14.7c-0.3-0.2-0.6-0.5-0.9-0.7c-3.1,1.3-6.2,2.6-9.3,3.9
			c-11.5,5.2-23,10.5-34.5,15.7c-8,3.6-16,7.1-24,10.4c-3,1.2-5.7-0.8-5.7-4c0-16.9,0-33.8,0-50.7c0-2.4,1.1-3.8,3.5-4
			c2.6-0.3,5.3-0.6,7.9-0.6c25.2,0,50.4,0,76.1,0c0.9,6.9,3.5,12.9,9.6,16.8c6.1,3.9,12.5,3.9,19.4,1c-1.6,6.8-3.1,13.2-4.7,19.7
			c-0.6,2.4-1,4.9-1.7,7.4c-0.5,1.7,0,2.6,1.7,3.3c7.1,2.6,14.1,5.5,21.1,8.2c2.9,1.1,4.4,3.3,5.3,5.9c3.6,10.2,7.1,20.4,10.6,30.6
			c2.9,8.4,2.4,10.2-4,15.4c-2.1,0-4.3,0-6.4,0c-1.9-2.1-4.5-4-5.5-6.5c-3.3-8.3-6.3-16.7-8.8-25.2c-1.2-4.1-3.4-5.9-7.2-7.2
			c-6.4-2.1-12.6-4.6-18.8-7.2c-1.4-0.6-3.5-1.8-3.6-3c-0.4-3.2-0.3-6.6,0.2-9.8c0.6-4.3,1.9-8.4,2.8-12.7
			c-2.3,3.7-3.6,7.9-5.7,11.6c-2.1,3.8-1.7,7.6-1.5,11.5c0.5,10.2,1.3,20.3,1.8,30.4c0.2,4.4-2.3,7.4-5.7,7.7
			c-7.3,0.6-8.9-2.5-9.3-6.9c-1-10.6-1.3-21.4-2.1-32c-0.5-7.1,0.7-13.6,4.1-19.9c1.3-2.3,2-5,3-7.4c-0.3-0.1-0.5-0.2-0.8-0.3
			c-2.4,3.7-4.8,7.4-7.1,11.1c-1.3,2.2-2.9,4.5-3.3,7c-0.5,3.7-0.9,7.8,0.1,11.3c2.9,10.5-2.5,17.8-9.4,23.9
			c-9.5,8.4-19.9,15.8-29.8,23.6C219.2,188,217,188,214.9,188z"/>
		<path class="st1" d="M357.4,41.1c2.5,1.9,5,3.7,5,7.3c0,3.7-2.1,6.4-6.1,8c-9.4,3.8-19,7.4-28.1,11.8c-3.4,1.6-5.9,5.2-8.8,8
			c-0.9,0.9-1.6,1.9-2.1,2.6c-2.5-4.7-5-9.2-7.7-14.3c3.7-6.6,10.8-10.1,18.5-13c8.2-3.1,16.1-6.9,24.1-10.3
			C353.9,41.1,355.6,41.1,357.4,41.1z"/>
		<path class="st1" d="M311.7,80.4c0.9,7.8-6.5,15.1-15.2,15.1c-7.3,0-15.1-6-14.8-15.6c0.3-9.8,7.1-14.8,15.1-14.8
			C304.2,65,312.2,70.3,311.7,80.4z"/>
	</g>
</g>
</svg>
