<?xml version="1.0" encoding="utf-8"?>
<!-- Generator: Adobe Illustrator 23.0.3, SVG Export Plug-In . SVG Version: 6.00 Build 0)  -->
<svg version="1.1" id="Layer_1" xmlns="http://www.w3.org/2000/svg" xmlns:xlink="http://www.w3.org/1999/xlink" x="0px" y="0px"
	 viewBox="0 0 539.6 403.6" style="enable-background:new 0 0 539.6 403.6;" xml:space="preserve">
<style type="text/css">
	.st0{fill:#171C25;}
	.st1{fill-rule:evenodd;clip-rule:evenodd;fill:#B12F57;}
</style>
<g>
	<path class="st0" d="M0,321.1h65.8v16.2H39.5v15.3h24.7V368H39.5v17.8h29v16.2H0V321.1z"/>
	<path class="st0" d="M173.7,321.1l-20.1,80.9h-60l-22.8-80.9h41.6c4.8,22.3,8.3,41.1,10.4,56.6c2-15.6,4.2-29.4,6.5-41.5l2.7-15
		H173.7z"/>
	<path class="st0" d="M180.3,321.1h65.8v16.2h-26.4v15.3h24.7V368h-24.7v17.8h29v16.2h-68.5V321.1z"/>
	<path class="st0" d="M348.3,321.1v80.9h-34.6l-20.5-36.8v36.8h-33v-80.9h33l22.1,36.4v-36.4H348.3z"/>
	<path class="st0" d="M443.7,321.1v16.2h-23.4v64.7h-39.5v-64.7h-23.3v-16.2H443.7z"/>
	<path class="st0" d="M536.3,345.5h-36.7v-6c0-2.8-0.5-4.6-1.4-5.3c-0.9-0.8-2.5-1.1-4.7-1.1c-2.4,0-4.2,0.5-5.4,1.6
		c-1.2,1-1.8,2.6-1.8,4.7c0,2.7,0.7,4.7,2.1,6.1c1.3,1.4,5,3,11.2,4.9c17.6,5.6,28.6,10.1,33.2,13.7c4.6,3.6,6.8,9.3,6.8,17.2
		c0,5.8-1.3,10-3.8,12.7c-2.5,2.7-7.4,5-14.7,6.9c-7.3,1.8-15.7,2.8-25.3,2.8c-10.6,0-19.6-1.1-27.1-3.2c-7.5-2.1-12.4-4.8-14.7-8.1
		c-2.3-3.3-3.5-8-3.5-14V373h36.7v9.8c0,3,0.5,5,1.5,5.8c1,0.9,2.9,1.3,5.5,1.3c2.6,0,4.6-0.5,5.9-1.6c1.3-1.1,1.9-2.7,1.9-4.9
		c0-4.8-1.2-7.9-3.7-9.3c-2.5-1.5-8.7-3.9-18.5-7.3c-9.8-3.5-16.3-6-19.5-7.5c-3.2-1.6-5.8-3.7-7.9-6.5c-2.1-2.8-3.1-6.3-3.1-10.6
		c0-6.2,1.5-10.7,4.5-13.6c3-2.9,7.8-5.1,14.4-6.7c6.6-1.6,14.6-2.4,24-2.4c10.3,0,19,0.9,26.2,2.6c7.2,1.8,12,4,14.3,6.7
		c2.3,2.7,3.5,7.2,3.5,13.7V345.5z"/>
</g>
<g>
	<g>
		<path class="st1" d="M137.6,71.3c1.8-3.4,4.6-4.6,8.4-4.5c6.6,0.2,13.2,0,19.8,0.1c2.5,0,4.2,1.7,4.2,3.8c0,2.2-1.6,3.7-4.1,3.8
			c-0.7,0-1.3,0-2,0c-5.4,0-10.7,0-16.1,0c-0.8,0-1.6,0.1-2.6,0.1c0,48.9,0,97.5,0,146.5c1.1,0,2,0,3,0c23.7,0,47.4,0,71.1,0
			c1.1,0,2.6-0.1,3.3,0.6c1,0.9,2.1,2.5,1.9,3.6c-0.2,1.2-1.7,2.3-2.9,3.2c-0.6,0.4-1.6,0.2-2.5,0.2c-24.5,0-49.1,0-73.6,0.1
			c-3.8,0-6.5-1.2-8-4.7C137.6,173.2,137.6,122.2,137.6,71.3z"/>
		<path class="st1" d="M260,74.2c3.3-3.9,7.3-6.4,12.4-7.1c1.4-0.2,2.8-0.2,4.3-0.2c12.1,0,24.1,0,36.5,0c1.1-11,6.7-19.1,15.9-24.7
			c7.7-4.7,16.1-6.2,25.1-5.5c5.4,0.5,10.5,2,15.2,4.6c4.8,2.6,8.8,6,12,10.5c3.2,4.5,4.8,9.5,5.3,14.6c2,0.5,4,0.6,5.2,1.6
			c1.4,1.2,2.1,3.2,3,4.9c0.3,0.5,0.1,1.3,0.1,2c0,48.7,0,97.3,0,146c0,5.9-2.1,8-8,8c-48.8,0-97.6,0-146.5,0c-0.5,0-1,0-1.5,0
			c-2.5-0.2-4.1-1.7-4.1-3.8c0-2.1,1.8-3.7,4.2-3.8c5.6-0.1,11.2,0,17.2,0c0-1.1,0-2,0-3c0-43.7,0-87.4,0-131.1
			c0-8.1-4.4-12.5-12.6-12.5c-19.2,0-38.4,0-57.5,0c-0.8,0-1.7,0-2.5-0.1c-2.2-0.2-3.4-1.5-3.5-3.6c-0.1-2.1,1.1-3.4,3.2-3.9
			c0.8-0.2,1.7-0.1,2.5-0.1c18.9,0,37.9,0.1,56.8-0.1C249.4,66.7,255.3,68.5,260,74.2z M263.7,220.9c37.2,0,74,0,110.9,0
			c0-43.1,0-86,0-129c-4.8,2.5-4.8,2.5-4.8,7.3c0,5.5,0,11.1,0,16.6c0,4-1.2,5.1-5,5.1c-30.3,0-60.6,0-91,0c-3.9,0-5.1-1.2-5.1-5.1
			c0-9.6,0-19.3,0-28.9c0-5.4,2.2-7.7,7.6-7.7c11.1,0,22.1,0,33.2,0c1.9,0,3.8,0,5.8,0c-1.1-4.9-1.1-4.9-5.7-4.9
			c-11,0-21.9,0-32.9,0c-8.5,0-12.9,4.3-12.9,12.8c0,43.6,0,87.3,0,130.9C263.7,219.1,263.7,220,263.7,220.9z M276.3,113.3
			c28.8,0,57.3,0,85.8,0c0-5.1,0-10,0-14.9c-0.5,0-0.8,0-1.1,0.1c-7.3,1.9-14.5,2-21.8,0.1c-0.8-0.2-2,0.2-2.7,0.7
			c-2.5,1.7-4.7,3.8-7.3,5.3c-1.2,0.7-3.3,1-4.3,0.4c-1-0.6-1.8-2.5-1.8-3.9c-0.1-2.4,0.4-4.8,0.7-7.2c0.6-3.8-1.9-6.8-5.7-6.8
			c-13,0-25.9,0-38.9,0c-0.9,0-1.8,0.1-2.8,0.1c0,1,0,1.8,0,2.5C276.3,97.5,276.3,105.3,276.3,113.3z M331.6,93.2
			c3.2-3.6,6.7-2.8,10.5-1.8c9.2,2.2,17.9,0.8,25.9-4.4c13.4-8.8,14.6-25.2,2.7-35.5c-11.6-10.1-31.6-9.7-42.8,1
			c-9.6,9.2-9.6,23,0.3,31.8C331.1,86.7,333,89,331.6,93.2z M387.2,74.4c-0.6,0.1-1,0.1-1.1,0.2c-1.3,3.6-3.5,7.1-3.6,10.7
			c-0.2,44.3-0.2,88.6-0.2,132.9c0,0.9,0,1.8,0,2.6c1.8,0,3.3,0,4.8,0C387.2,172.1,387.2,123.3,387.2,74.4z"/>
		<path class="st1" d="M167.7,171.7c-2-3.1-3.5-5.7-7.5-5c-1.9,0.3-4,0.1-6,0c-2.6-0.1-4-1.5-4-4.1c0-10.8,0-21.6,0-32.4
			c0-2.8,1.4-4.1,4.2-4.1c3.4-0.1,6.9,0,10.3,0c26.9,0,53.8,0,80.6,0c5,0,5.9,0.8,5.9,5.8c0,10,0,19.9,0,29.9c0,3.9-1.2,5-5.1,5
			c-2.9,0-5.9,0-8.8,0c-4.6,0-5.1,0.3-7.6,4.9c4.8,0,9.5,0,14.1,0c7.3,0,7.4,0.2,7.4,7.5c0,10.6,0,21.3,0,31.9
			c0,3.9-1.1,5.1-5.1,5.1c-15.7,0-31.3,0-47,0c-3.9,0-5.1-1.3-5.2-5.1c0-3.4-0.4-4-4.5-9.6c-0.1,0.8-0.3,1.4-0.3,2
			c0,2.8,0.1,5.5,0,8.3c-0.1,2.8-1.3,4.3-3.9,4.3c-10.5,0.1-20.9,0.1-31.4,0c-2.5,0-3.7-1.5-3.7-4.1c0-12.1,0-24.1,0-36.2
			c0-2.7,1.4-4.1,4.2-4.1C158.7,171.6,163,171.7,167.7,171.7z M198.6,201.3c1.3-2,2.4-3.7,3.5-5.4c2-3.1,4.2-3.8,7.8-2.5
			c1.9,0.7,3.9,1.5,6.1,2.3c-0.1-2.1-0.3-3.8-0.4-5.5c-0.2-5,1-6.6,5.8-7.8c1.7-0.4,3.3-0.9,5.2-1.4c-0.9-1.1-1.5-1.9-2.1-2.6
			c-0.7-0.8-1.4-1.7-2.1-2.5c-2-2.6-2.1-5.1,0-7.8c1.3-1.7,2.7-3.3,4.3-5.2c-2.3-0.6-4.2-1.1-6.1-1.6c-3.6-0.9-5-2.8-4.9-6.5
			c0.1-2.1,0.2-4.3,0.4-6.6c-2.2,0.8-4,1.5-5.9,2.2c-3.8,1.4-5.8,0.7-8.1-2.7c-1.1-1.7-2.1-3.3-3.4-5.2c-1.2,2-2.3,3.6-3.4,5.3
			c-2.1,3.3-4.3,4-7.9,2.6c-1.9-0.7-3.8-1.5-6.1-2.3c0.2,2.4,0.4,4.3,0.5,6.3c0.2,3.7-1.3,5.8-4.9,6.8c-2,0.5-3.9,1-6.2,1.6
			c1.2,1.5,2.1,2.6,3.1,3.8c3.6,4.4,3.7,6.2,0.1,10.5c-1,1.2-2,2.4-3.2,3.9c2.1,0.6,3.9,1,5.6,1.5c4.3,1.1,5.7,3.1,5.4,7.6
			c-0.1,1.8-0.3,3.5-0.4,5.7c2.1-0.8,3.7-1.5,5.3-2.1c4.4-1.7,6.4-1.1,8.9,2.8C196.4,198,197.4,199.5,198.6,201.3z M243.5,159.1
			c0-8.7,0-17,0-25.4c-13.9,0-27.7,0-41.4,0c1.7,2.7,3.3,5.3,5.1,7.8c0.4,0.5,1.7,0.9,2.3,0.7c2.1-0.6,4.1-1.5,6.1-2.3
			c4.8-1.8,8.4,1,8.1,6.1c-0.2,2.6-0.2,5.3-0.3,7.8c4.2,1.8,9.2,1.3,12.2,5.1c0.1,0.2,0.6,0.1,1,0.1
			C238.8,159.1,241,159.1,243.5,159.1z M208,200.8c-1.6,2.6-3.2,5-4.8,7.6c13.7,0,27,0,40.3,0c0-9.8,0-19.4,0-29c-2.8,0-5.4,0-7.9,0
			c0.7,5.8-0.2,7.2-5.9,8.7c-1,0.3-1.9,0.6-2.9,0.7c-2.6,0.3-3.9,1.3-3.2,4.2c0.4,1.7,0.3,3.5,0.3,5.2c0.1,4.5-3.5,7.2-7.7,5.7
			C213.4,203,210.9,201.9,208,200.8z M157.8,133.6c0,8.6,0,16.9,0,25.8c1.7-0.4,3.2-0.6,4.5-1.1c1.7-0.7,3.1-1.9,4.8-2.5
			c2.2-0.8,4.4-1.2,6.8-1.8c-0.2-2.6-0.2-5-0.4-7.4c-0.5-5.5,3.2-8.4,8.3-6.5c2,0.8,4,1.6,6.1,2.3c0.5,0.2,1.6,0,1.9-0.4
			c1.9-2.7,3.6-5.5,5.4-8.3C182.6,133.6,170.3,133.6,157.8,133.6z M157.7,208.4c8,0,15.7,0,23.5,0c0-1.5,0-2.9,0-4.3
			c-5.5,0.9-8.3-1.8-7.8-7.1c0.1-0.9,0.2-1.8,0.2-2.7c0.2-4.5,0.2-4.5-4.2-5.7c-0.6-0.2-1.3-0.3-1.9-0.5c-5.6-1.5-6.6-2.9-6-8.6
			c-1.3,0-2.6,0-3.9,0C157.7,189.2,157.7,198.7,157.7,208.4z"/>
		<path class="st1" d="M177.6,121c-7.5,0-15.1,0-22.6,0c-3.7,0-4.9-1.2-4.9-5c0-10.5,0-21.1,0-31.6c0-3.7,1.2-5,4.9-5
			c15.1,0,30.1,0,45.2,0c3.6,0,5,1.4,5,5c0,10.5,0,21.1,0,31.6c0,3.7-1.4,5-5,5C192.7,121,185.2,121,177.6,121z M197.4,87.2
			c-13.4,0-26.5,0-39.6,0c0,8.8,0,17.4,0,26.1c13.2,0,26.3,0,39.6,0C197.4,104.6,197.4,96,197.4,87.2z"/>
		<path class="st1" d="M230.6,121c-5.3,0-10.5,0-15.8,0c-3.2,0-4.7-1.4-4.7-4.5c0-10.8,0-21.6,0-32.4c0-3.3,1.5-4.7,4.9-4.7
			c9.8,0,19.6,0,29.4,0c4.4,0,6.8,2.4,6.8,6.8c0,10,0,20.1,0,30.1c0,3.4-1.3,4.6-4.8,4.6C241.1,121,235.9,121,230.6,121z
			 M243.5,87.2c-8.6,0-17,0-25.5,0c0,8.8,0,17.4,0,26.1c8.6,0,17,0,25.5,0C243.5,104.6,243.5,96,243.5,87.2z"/>
		<path class="st1" d="M276.4,179.3c0,9.8,0,19.3,0,29.1c0.8,0,1.6,0.1,2.4,0.1c13.7,0,27.5,0,41.2-0.1c0.9,0,2.2-0.7,2.7-1.5
			c8.4-14,22.4-20.7,38.5-18.2c0.2,0,0.5,0,0.9,0c0-3.1,0-6.1,0-9.6c-3,0-6.1,0-9.2,0c-0.9,0-1.9,0.1-2.8-0.1
			c-2.1-0.4-3.3-1.7-3.3-3.8c0.1-2.1,1.2-3.6,3.4-3.6c5.4-0.1,10.7-0.1,16.1,0c2.4,0.1,3.5,1.5,3.5,4.3c0,6.1,0,12.2,0,18.3
			c0,5.5,0,11.1,0,16.6c0,4.1-1.1,5.2-5.3,5.2c-24.3,0-48.6,0-72.8,0c-5.9,0-11.9,0-17.8,0c-4,0-5.2-1.2-5.2-5.3
			c0-11.4,0-22.8,0-34.2c0-3.8,1.2-5,4.9-5.1c19.4,0,38.9,0,58.3,0c3.2,0,4.9,1.4,5,3.7c0,2.4-1.9,3.9-5.1,3.9
			c-17.4,0-34.8,0-52.3,0C278.5,179.3,277.6,179.3,276.4,179.3z M330.9,208.4c10.7,0,21,0,31.4,0c0-3.5,0.1-6.9-0.1-10.2
			c0-0.6-1-1.6-1.6-1.7c-2.6-0.4-5.2-0.7-7.7-0.6C343.7,196.6,336.5,200.7,330.9,208.4z"/>
		<path class="st1" d="M340.6,126c8.1,0,16.2,0,24.3,0c3.8,0,4.9,1.2,4.9,5c0,10.3,0,20.6,0,30.9c0,3.6-1.3,4.9-4.8,4.9
			c-16.1,0-32.3,0-48.4,0c-3.6,0-5-1.4-5-5c0-10.3,0-20.6,0-30.9c0-3.5,1.3-4.8,4.9-4.8C324.5,126,332.6,126,340.6,126z
			 M362.2,133.7c-14.4,0-28.5,0-42.7,0c0,8.4,0,16.8,0,25.2c14.3,0,28.5,0,42.7,0C362.2,150.4,362.2,142.2,362.2,133.7z"/>
		<path class="st1" d="M268.7,146.3c0-5.1,0-10.2,0-15.3c0-3.6,1.2-4.9,4.7-4.9c9.5,0,19.1,0,28.6,0c3.2,0,4.6,1.3,4.6,4.6
			c0,10.5,0,20.9,0,31.4c0,3.3-1.5,4.7-4.8,4.7c-9.5,0-18.9,0-28.4,0c-3.5,0-4.8-1.4-4.8-4.9C268.7,156.7,268.7,151.5,268.7,146.3z
			 M276.5,133.7c0,8.6,0,16.9,0,25.2c7.6,0,14.9,0,22.4,0c0-8.5,0-16.8,0-25.2C291.3,133.7,284,133.7,276.5,133.7z"/>
		<path class="st1" d="M349.9,65.2c-5,0-10,0-15.1,0c-2.8,0-4.6-1.6-4.6-3.9c0-2.2,1.7-3.7,4.5-3.7c10.1,0,20.3,0,30.4,0
			c2.8,0,4.4,1.5,4.5,3.7c0,2.3-1.8,3.9-4.6,3.9C359.9,65.3,354.9,65.2,349.9,65.2z"/>
		<path class="st1" d="M350.1,71.2c4.1,0,8.2,0,12.3,0c2.9,0,4.6,1.5,4.6,3.8c0,2.3-1.9,3.7-4.7,3.7c-8.3,0-16.6,0-24.9,0
			c-2.9,0-4.7-1.5-4.7-3.8c0-2.3,1.7-3.8,4.6-3.8C341.6,71.2,345.9,71.2,350.1,71.2z"/>
		<path class="st1" d="M198.4,168.7c-3.3,0-6.5,0-9.8,0c-2.8,0-4.6-1.6-4.6-3.9c0-2.2,1.8-3.8,4.7-3.8c6.7,0,13.4-0.1,20.1,0
			c2.9,0,4.6,1.6,4.5,4c-0.1,2.2-1.8,3.7-4.5,3.7C205.2,168.7,201.8,168.7,198.4,168.7z"/>
		<path class="st1" d="M198.5,182.8c-3.3,0-6.5,0-9.8,0c-2.8,0-4.7-1.5-4.7-3.8c-0.1-2.2,1.8-3.9,4.6-3.9c6.7-0.1,13.4-0.1,20.1,0
			c2.9,0,4.6,1.5,4.6,3.9c0,2.3-1.8,3.8-4.6,3.8C205.1,182.8,201.8,182.8,198.5,182.8z"/>
	</g>
	<g>
		<g>
			<path class="st0" d="M73.3,288.2c-2.3-1.6-4.2-3.4-4.5-6.4c-0.4-3.4,1.6-5.4,3.8-7.2c6.1-4.9,12.5-9.5,18.5-14.6
				c2.5-2.1,4.4-5.1,6.3-7.8c3.4-4.7,7-9.4,10-14.4c2.1-3.6,3.1-7.7,4.7-11.6c-0.2-0.2-0.5-0.4-0.7-0.6c-2.5,1-4.9,2-7.4,3.1
				c-9.1,4.1-18.2,8.3-27.4,12.4c-6.3,2.8-12.7,5.6-19,8.3c-2.4,1-4.5-0.6-4.5-3.2c0-13.4,0-26.8,0-40.2c0-1.9,0.9-3,2.8-3.2
				c2.1-0.2,4.2-0.5,6.3-0.5c20,0,40,0,60.3,0c0.7,5.5,2.8,10.2,7.6,13.4c4.9,3.1,9.9,3.1,15.4,0.8c-1.3,5.4-2.5,10.5-3.7,15.6
				c-0.5,1.9-0.8,3.9-1.3,5.8c-0.4,1.4,0,2.1,1.4,2.6c5.6,2.1,11.2,4.4,16.8,6.5c2.3,0.9,3.5,2.6,4.2,4.7c2.9,8.1,5.6,16.2,8.4,24.3
				c2.3,6.6,1.9,8.1-3.2,12.2c-1.7,0-3.4,0-5.1,0c-1.5-1.7-3.5-3.2-4.3-5.2c-2.6-6.6-5-13.2-7-20c-1-3.2-2.7-4.7-5.7-5.7
				c-5.1-1.6-10-3.7-14.9-5.7c-1.1-0.5-2.8-1.5-2.9-2.4c-0.3-2.6-0.2-5.2,0.1-7.8c0.5-3.4,1.5-6.7,2.2-10c-1.8,3-2.9,6.2-4.5,9.2
				c-1.7,3-1.4,6-1.2,9.1c0.4,8.1,1,16.1,1.4,24.1c0.2,3.5-1.8,5.9-4.5,6.1c-5.8,0.5-7-2-7.4-5.5c-0.8-8.4-1-16.9-1.7-25.4
				c-0.4-5.6,0.5-10.8,3.3-15.8c1-1.8,1.6-3.9,2.4-5.9c-0.2-0.1-0.4-0.2-0.6-0.3c-1.9,2.9-3.8,5.8-5.6,8.8c-1,1.8-2.3,3.6-2.6,5.5
				c-0.4,2.9-0.7,6.2,0.1,9c2.3,8.3-2,14.2-7.4,19c-7.5,6.7-15.7,12.5-23.7,18.8C76.6,288.2,74.9,288.2,73.3,288.2z"/>
			<path class="st0" d="M186.3,171.7c2,1.5,4,2.9,4,5.8c0,3-1.7,5-4.8,6.3c-7.5,3-15,5.9-22.3,9.4c-2.7,1.3-4.7,4.1-6.9,6.3
				c-0.7,0.7-1.2,1.5-1.7,2.1c-2-3.7-3.9-7.3-6.1-11.4c2.9-5.3,8.6-8,14.7-10.3c6.5-2.5,12.8-5.4,19.1-8.2
				C183.5,171.7,184.9,171.7,186.3,171.7z"/>
			<path class="st0" d="M150,202.9c0.7,6.2-5.2,12-12,12c-5.8,0-12-4.8-11.7-12.4c0.2-7.7,5.6-11.7,12-11.8
				C144.1,190.7,150.4,194.9,150,202.9z"/>
		</g>
		<g>
			<path class="st0" d="M312.1,319.4c2.3-1.6,4.2-3.4,4.5-6.4c0.4-3.4-1.6-5.4-3.8-7.2c-6.1-4.9-12.5-9.5-18.5-14.6
				c-2.5-2.1-4.4-5.1-6.3-7.8c-3.4-4.7-7-9.4-10-14.4c-2.1-3.6-3.1-7.7-4.7-11.6c0.2-0.2,0.5-0.4,0.7-0.6c2.5,1,4.9,2,7.4,3.1
				c9.1,4.1,18.2,8.3,27.4,12.4c6.3,2.8,12.7,5.6,19,8.3c2.4,1,4.5-0.6,4.5-3.2c0-13.4,0-26.8,0-40.2c0-1.9-0.9-3-2.8-3.2
				c-2.1-0.2-4.2-0.5-6.3-0.5c-20,0-40,0-60.3,0c-0.7,5.5-2.8,10.2-7.6,13.4c-4.9,3.1-9.9,3.1-15.4,0.8c1.3,5.4,2.5,10.5,3.7,15.6
				c0.5,1.9,0.8,3.9,1.3,5.8c0.4,1.4,0,2.1-1.4,2.6c-5.6,2.1-11.2,4.4-16.8,6.5c-2.3,0.9-3.5,2.6-4.2,4.7
				c-2.9,8.1-5.6,16.2-8.4,24.3c-2.3,6.6-1.9,8.1,3.2,12.2c1.7,0,3.4,0,5.1,0c1.5-1.7,3.5-3.2,4.3-5.2c2.6-6.6,5-13.2,7-20
				c1-3.2,2.7-4.7,5.7-5.7c5.1-1.6,10-3.7,14.9-5.7c1.1-0.5,2.8-1.5,2.9-2.4c0.3-2.6,0.2-5.2-0.1-7.8c-0.5-3.4-1.5-6.7-2.2-10
				c1.8,3,2.9,6.2,4.5,9.2c1.7,3,1.4,6,1.2,9.1c-0.4,8.1-1,16.1-1.4,24.1c-0.2,3.5,1.8,5.9,4.5,6.1c5.8,0.5,7-2,7.4-5.5
				c0.8-8.4,1-16.9,1.7-25.4c0.4-5.6-0.5-10.8-3.3-15.8c-1-1.8-1.6-3.9-2.4-5.9c0.2-0.1,0.4-0.2,0.6-0.3c1.9,2.9,3.8,5.8,5.6,8.8
				c1,1.8,2.3,3.6,2.6,5.5c0.4,2.9,0.7,6.2-0.1,9c-2.3,8.3,2,14.2,7.4,19c7.5,6.7,15.7,12.5,23.7,18.8
				C308.7,319.4,310.4,319.4,312.1,319.4z"/>
			<path class="st0" d="M199.1,202.8c-2,1.5-4,2.9-4,5.8c0,3,1.7,5,4.8,6.3c7.5,3,15,5.9,22.3,9.4c2.7,1.3,4.7,4.1,6.9,6.3
				c0.7,0.7,1.2,1.5,1.7,2.1c2-3.7,3.9-7.3,6.1-11.4c-2.9-5.3-8.6-8-14.7-10.3c-6.5-2.5-12.8-5.4-19.1-8.2
				C201.8,202.8,200.5,202.8,199.1,202.8z"/>
			<path class="st0" d="M235.4,234c-0.7,6.2,5.2,12,12,12c5.8,0,12-4.8,11.7-12.4c-0.2-7.7-5.6-11.7-12-11.8
				C241.3,221.8,235,226,235.4,234z"/>
		</g>
	</g>
	<g>
		<g>
			<path class="st0" d="M462.2,117.2c2.3-1.6,4.2-3.4,4.5-6.4c0.4-3.4-1.6-5.4-3.8-7.2c-6.1-4.9-12.5-9.5-18.5-14.6
				c-2.5-2.1-4.4-5.1-6.3-7.8c-3.4-4.7-7-9.4-10-14.4c-2.1-3.6-3.1-7.7-4.7-11.6c0.2-0.2,0.5-0.4,0.7-0.6c2.5,1,4.9,2,7.4,3.1
				c9.1,4.1,18.2,8.3,27.4,12.4c6.3,2.8,12.7,5.6,19,8.3c2.4,1,4.5-0.6,4.5-3.2c0-13.4,0-26.8,0-40.2c0-1.9-0.9-3-2.8-3.2
				c-2.1-0.2-4.2-0.5-6.3-0.5c-20,0-40,0-60.3,0c-0.7,5.5-2.8,10.2-7.6,13.4c-4.9,3.1-9.9,3.1-15.4,0.8c1.3,5.4,2.5,10.5,3.7,15.6
				c0.5,1.9,0.8,3.9,1.3,5.8c0.4,1.4,0,2.1-1.4,2.6c-5.6,2.1-11.2,4.4-16.8,6.5c-2.3,0.9-3.5,2.6-4.2,4.7
				c-2.9,8.1-5.6,16.2-8.4,24.3c-2.3,6.6-1.9,8.1,3.2,12.2c1.7,0,3.4,0,5.1,0c1.5-1.7,3.5-3.2,4.3-5.2c2.6-6.6,5-13.2,7-20
				c1-3.2,2.7-4.7,5.7-5.7c5.1-1.6,10-3.7,14.9-5.7c1.1-0.5,2.8-1.5,2.9-2.4c0.3-2.6,0.2-5.2-0.1-7.8c-0.5-3.4-1.5-6.7-2.2-10
				c1.8,3,2.9,6.2,4.5,9.2c1.7,3,1.4,6,1.2,9.1c-0.4,8.1-1,16.1-1.4,24.1c-0.2,3.5,1.8,5.9,4.5,6.1c5.8,0.5,7-2,7.4-5.5
				c0.8-8.4,1-16.9,1.7-25.4c0.4-5.6-0.5-10.8-3.3-15.8c-1-1.8-1.6-3.9-2.4-5.9c0.2-0.1,0.4-0.2,0.6-0.3c1.9,2.9,3.8,5.8,5.6,8.8
				c1,1.8,2.3,3.6,2.6,5.5c0.4,2.9,0.7,6.2-0.1,9c-2.3,8.3,2,14.2,7.4,19c7.5,6.7,15.7,12.5,23.7,18.8
				C458.9,117.2,460.6,117.2,462.2,117.2z"/>
			<path class="st0" d="M349.2,0.6c-2,1.5-4,2.9-4,5.8c0,3,1.7,5,4.8,6.3c7.5,3,15,5.9,22.3,9.4c2.7,1.3,4.7,4.1,6.9,6.3
				c0.7,0.7,1.2,1.5,1.7,2.1c2-3.7,3.9-7.3,6.1-11.4c-2.9-5.3-8.6-8-14.7-10.3c-6.5-2.5-12.8-5.4-19.1-8.2
				C352,0.6,350.6,0.6,349.2,0.6z"/>
			<path class="st0" d="M385.5,31.8c-0.7,6.2,5.2,12,12,12c5.8,0,12-4.8,11.7-12.4c-0.2-7.7-5.6-11.7-12-11.8
				C391.4,19.6,385.1,23.8,385.5,31.8z"/>
		</g>
		<g>
			<path class="st0" d="M223.4,148.3c-2.3-1.6-4.2-3.4-4.5-6.4c-0.4-3.4,1.6-5.4,3.8-7.2c6.1-4.9,12.5-9.5,18.5-14.6
				c2.5-2.1,4.4-5.1,6.3-7.8c3.4-4.7,7-9.4,10-14.4c2.1-3.6,3.1-7.7,4.7-11.6c-0.2-0.2-0.5-0.4-0.7-0.6c-2.5,1-4.9,2-7.4,3.1
				c-9.1,4.1-18.2,8.3-27.4,12.4c-6.3,2.8-12.7,5.6-19,8.3c-2.4,1-4.5-0.6-4.5-3.2c0-13.4,0-26.8,0-40.2c0-1.9,0.9-3,2.8-3.2
				c2.1-0.2,4.2-0.5,6.3-0.5c20,0,40,0,60.3,0c0.7,5.5,2.8,10.2,7.6,13.4c4.9,3.1,9.9,3.1,15.4,0.8c-1.3,5.4-2.5,10.5-3.7,15.6
				c-0.5,1.9-0.8,3.9-1.3,5.8c-0.4,1.4,0,2.1,1.4,2.6c5.6,2.1,11.2,4.4,16.8,6.5c2.3,0.9,3.5,2.6,4.2,4.7c2.9,8.1,5.6,16.2,8.4,24.3
				c2.3,6.6,1.9,8.1-3.2,12.2c-1.7,0-3.4,0-5.1,0c-1.5-1.7-3.5-3.2-4.3-5.2c-2.6-6.6-5-13.2-7-20c-1-3.2-2.7-4.7-5.7-5.7
				c-5.1-1.6-10-3.7-14.9-5.7c-1.1-0.5-2.8-1.5-2.9-2.4c-0.3-2.6-0.2-5.2,0.1-7.8c0.5-3.4,1.5-6.7,2.2-10c-1.8,3-2.9,6.2-4.5,9.2
				c-1.7,3-1.4,6-1.2,9.1c0.4,8.1,1,16.1,1.4,24.1c0.2,3.5-1.8,5.9-4.5,6.1c-5.8,0.5-7-2-7.4-5.5c-0.8-8.4-1-16.9-1.7-25.4
				c-0.4-5.6,0.5-10.8,3.3-15.8c1-1.8,1.6-3.9,2.4-5.9c-0.2-0.1-0.4-0.2-0.6-0.3c-1.9,2.9-3.8,5.8-5.6,8.8c-1,1.8-2.3,3.6-2.6,5.5
				c-0.4,2.9-0.7,6.2,0.1,9c2.3,8.3-2,14.2-7.4,19c-7.5,6.7-15.7,12.5-23.7,18.8C226.8,148.3,225.1,148.3,223.4,148.3z"/>
			<path class="st0" d="M336.4,31.7c2,1.5,4,2.9,4,5.8c0,3-1.7,5-4.8,6.3c-7.5,3-15,5.9-22.3,9.4c-2.7,1.3-4.7,4.1-6.9,6.3
				c-0.7,0.7-1.2,1.5-1.7,2.1c-2-3.7-3.9-7.3-6.1-11.4c2.9-5.3,8.6-8,14.7-10.3c6.5-2.5,12.8-5.4,19.1-8.2
				C333.7,31.7,335,31.7,336.4,31.7z"/>
			<path class="st0" d="M300.2,62.9c0.7,6.2-5.2,12-12,12c-5.8,0-12-4.8-11.7-12.4c0.2-7.7,5.6-11.7,12-11.8
				C294.2,50.7,300.5,54.9,300.2,62.9z"/>
		</g>
	</g>
</g>
</svg>
