<?xml version="1.0" encoding="utf-8"?>
<!-- Generator: Adobe Illustrator 23.0.3, SVG Export Plug-In . SVG Version: 6.00 Build 0)  -->
<svg version="1.1" id="Layer_1" xmlns="http://www.w3.org/2000/svg" xmlns:xlink="http://www.w3.org/1999/xlink" x="0px" y="0px"
	 viewBox="0 0 1366 768" style="enable-background:new 0 0 1366 768;" xml:space="preserve">
<style type="text/css">
	.st0{fill:#B12F56;}
</style>
<path class="st0" d="M357.8,258c2.2-12,3.4-24.2,6.6-35.9c17.2-62.7,54.2-108.2,117.2-128.6c66-21.4,132.3-1,176.4,52.8
	c9.6,11.7,17.4,24.9,26,37.4c1,1.5,2,3.1,3.3,5.3c4.1-6.8,7.7-13,11.6-19.1c20.1-31,45.4-56.4,79.8-71.4
	c61.5-26.8,135.4-12.2,183.2,37c41.8,43,58.1,95.5,54.1,154.7c-3.5,50.8-26.5,93.4-57.5,132.3c-33.7,42.3-73.8,78.3-114.5,113.6
	c-47.1,40.9-94.6,81.4-142,122c-9.8,8.4-19.1,9-28.3,1c-60.4-52.1-121-104-180.8-156.7c-32.4-28.5-62.5-59.3-87.9-94.5
	c-25-34.6-42.7-72.2-46.3-115.4c-0.1-0.8-0.6-1.6-0.9-2.4C357.8,279.5,357.8,268.7,357.8,258z M687.2,619.7c1.8-1.4,3.3-2.6,4.7-3.8
	c27.7-23.7,55.4-47.4,83.1-71.1c42.7-36.5,85.7-72.8,124.5-113.5c26.4-27.8,51.1-57.1,65.3-93.2c23.8-60.6,17.9-118.2-24.4-169
	c-44.7-53.6-133.8-64.9-189.1-4.1c-20.7,22.8-35,49-44.8,78c-3.6,10.6-9.9,16.1-19,16.3c-9.3,0.1-16-5.5-19.6-16.3
	c-8-24-19.5-46.1-34.8-66.3c-53.2-69.9-134.7-62.2-181.5-24.6c-36.7,29.4-52.9,69.1-55.1,115.1c-1.8,38,10.2,72.1,30.4,103.8
	c21.1,33.2,47.5,62,76.5,88.2c45.9,41.3,92.8,81.6,139.3,122.2C657.4,594.2,672.3,606.8,687.2,619.7z"/>
</svg>
