<?xml version="1.0" encoding="utf-8"?>
<!-- Generator: Adobe Illustrator 23.0.3, SVG Export Plug-In . SVG Version: 6.00 Build 0)  -->
<svg version="1.1" id="Layer_1" xmlns="http://www.w3.org/2000/svg" xmlns:xlink="http://www.w3.org/1999/xlink" x="0px" y="0px"
	 viewBox="0 0 1366 768" style="enable-background:new 0 0 1366 768;" xml:space="preserve">
<style type="text/css">
	.st0{fill:#B12F56;}
</style>
<path class="st0" d="M348.9,329c0-10.8,0-21.6,0-32.4c0.4-1.8,1-3.6,1.1-5.4c2.9-29.8,11.6-57.6,26.6-83.5
	c36.3-62.2,107.3-95.9,177.8-84c43.2,7.3,77,30.4,104.6,63.5c2.9,3.4,5.6,7,8.5,10.6c6-7,11.4-13.8,17.3-20.2
	c75.4-83.2,195.5-68.4,255.1,4.2c49.9,60.7,59,129.8,33.7,203.2c-14.9,43.2-42.2,78.8-75.5,109.7c-61.6,57-126.5,110.2-191.7,162.9
	c-23.3,18.9-54,18.4-77.6-0.2c-14.2-11.2-28.3-22.5-41.9-34.3c-52.7-45.4-106.1-90-157.4-136.8c-35.8-32.6-60.9-73.3-73.7-120.6
	C352.5,353.6,351.1,341.2,348.9,329z"/>
</svg>
