<?xml version="1.0" encoding="utf-8"?>
<!-- Generator: Adobe Illustrator 23.0.3, SVG Export Plug-In . SVG Version: 6.00 Build 0)  -->
<svg version="1.1" id="Layer_1" xmlns="http://www.w3.org/2000/svg" xmlns:xlink="http://www.w3.org/1999/xlink" x="0px" y="0px"
	 viewBox="0 0 539.595 403.648" enable-background="new 0 0 539.595 403.648" xml:space="preserve">
<g>
	<path fill-rule="evenodd" clip-rule="evenodd" fill="#B12F57" d="M72.573,95.402c2.998-5.441,7.673-6.955,13.723-6.941
		c60.474,0.144,120.948,0.087,181.421,0.087c1.523,0,3.045,0,4.895,0c0.911,16.292,7.455,29.39,21.317,38.054
		c13.748,8.592,28.256,8.855,43.654,2.494c-1.682,7.233-3.234,14.015-4.84,20.783c-3.341,14.075-6.611,28.169-10.147,42.194
		c-0.704,2.789-0.037,3.817,2.492,4.766c15.817,5.943,31.521,12.189,47.388,17.993c7.956,2.913,12.995,7.98,15.719,16.047
		c8.519,25.23,17.375,50.344,26.038,75.523c4.958,14.412-4.586,28.177-19.152,27.763c-8.296-0.236-15.324-5.487-18.323-14.048
		c-7.703-21.985-15.355-43.987-22.865-66.039c-1.011-2.971-2.569-4.539-5.494-5.636c-18.702-7.014-37.314-14.269-56.002-21.326
		c-2.329-0.88-3.069-2.02-3.546-4.553c-3.017-16.048,2.419-30.908,5.975-46.041c1.401-5.958,2.91-11.889,3.766-18.088
		c-0.5,1.003-1.051,1.984-1.491,3.013c-6.106,14.244-12.243,28.476-18.233,42.769c-0.75,1.792-1.066,3.94-0.957,5.889
		c1.055,18.833,2.245,37.661,3.392,56.49c0.524,8.582,1.21,17.157,1.509,25.747c0.368,10.561-6.199,18.195-15.71,18.703
		c-9.531,0.508-17.155-6.427-17.863-16.758c-1.23-17.924-2.182-35.864-3.267-53.798c-0.667-11.015-1.563-22.021-1.94-33.045
		c-0.127-3.727,0.318-7.786,1.711-11.199c6.583-16.12,13.587-32.066,20.432-48.081c0.477-1.117,0.875-2.269,0.767-3.669
		c-2.892,4.502-5.791,9-8.677,13.505c-7.058,11.017-14.037,22.085-21.206,33.028c-2.562,3.91-3.892,7.934-3.583,12.653
		c0.954,14.597,1.799,29.203,2.514,43.813c0.086,1.744-0.471,3.824-1.446,5.264c-4.82,7.116-9.579,14.311-14.965,20.989
		c-3.332,4.13-7.538,7.65-11.71,10.994c-18.624,14.93-37.339,29.747-56.097,44.507c-12.136,9.551-28.789,4.333-32.422-10.248
		c-2.085-8.37,0.584-15.448,7.371-20.84c19.396-15.405,38.832-30.762,58.195-46.21c1.872-1.494,3.582-3.315,4.975-5.265
		c14.244-19.939,28.455-39.901,42.525-59.962c1.706-2.433,2.919-5.379,3.691-8.266c2.21-8.256,4.076-16.604,6.274-25.738
		c-1.846,0.743-3.073,1.188-4.26,1.722c-49.634,22.322-99.264,44.652-148.896,66.979c-8.054,3.623-12.105,2.383-16.65-5.065
		C72.573,176.038,72.573,135.721,72.573,95.402z"/>
	<path fill-rule="evenodd" clip-rule="evenodd" fill="#B12F57" d="M467.022,20.673c-2.677,7.118-8.16,10.802-15.039,13.556
		c-22.08,8.838-44.007,18.063-65.945,27.255c-1.908,0.8-3.74,2.198-5.13,3.746c-5.396,6.009-10.606,12.185-15.864,18.316
		c-0.639,0.743-1.148,1.596-2.069,2.178c-1.655-12.844-6.983-23.28-16.889-31.87c8.573-8.556,14.483-19.129,27.005-23.763
		c22.654-8.384,44.914-17.901,67.033-27.636c10.401-4.578,21.882-3.244,26.898,10.514C467.022,15.536,467.022,18.104,467.022,20.673
		z"/>
	<path fill-rule="evenodd" clip-rule="evenodd" fill="#B12F57" d="M283.659,88.417c0.007-18.709,15.236-33.813,34.104-33.821
		c18.829-0.009,34.157,15.424,34.114,34.347c-0.041,18.51-15.588,33.923-34.247,33.952
		C298.911,122.924,283.652,107.437,283.659,88.417z"/>
</g>
<g>
	<path fill="#171C25" d="M87.229,322.723v79.261H49.292v-33.291H37.937v33.291H0v-79.261h37.937v28.346h11.354v-28.346H87.229z"/>
	<path fill="#171C25" d="M102.458,322.723h63.259v15.862h-25.322v15.03h23.7v15.078h-23.7v17.429h27.845v15.862h-65.782V322.723z"/>
	<path fill="#171C25" d="M179.144,322.723h26.854c17.901,0,30.022,0.375,36.36,1.126c6.337,0.751,11.503,2.668,15.499,5.752
		c3.995,3.084,5.993,8.005,5.993,14.761c0,6.169-1.412,10.314-4.235,12.435c-2.824,2.122-8.38,3.395-16.671,3.819
		c7.509,1.012,12.555,2.366,15.139,4.063c2.582,1.698,4.19,3.256,4.821,4.676s0.946,5.329,0.946,11.725v20.905h-35.234v-26.339
		c0-4.242-0.617-6.87-1.847-7.882c-1.232-1.012-4.46-1.517-9.687-1.517v35.738h-37.937V322.723z M217.082,336.284v17.624
		c4.265,0,7.254-0.319,8.966-0.955c1.712-0.636,2.568-2.7,2.568-6.193v-4.357c0-2.513-0.826-4.162-2.478-4.945
		C224.485,336.676,221.466,336.284,217.082,336.284z"/>
	<path fill="#171C25" d="M365.227,369.134c0,7.964-0.345,13.603-1.036,16.915c-0.691,3.313-2.853,6.34-6.488,9.081
		c-3.635,2.742-8.546,4.846-14.734,6.316c-6.188,1.468-13.396,2.203-21.627,2.203c-7.811,0-14.824-0.694-21.042-2.081
		c-6.218-1.387-11.219-3.467-15.003-6.242c-3.785-2.774-6.038-5.793-6.759-9.057c-0.721-3.263-1.08-8.975-1.08-17.135v-13.561
		c0-7.962,0.343-13.601,1.036-16.914c0.689-3.312,2.853-6.34,6.488-9.081c3.633-2.742,8.546-4.847,14.734-6.316
		c6.186-1.468,13.394-2.203,21.627-2.203c7.809,0,14.824,0.694,21.042,2.081c6.218,1.388,11.219,3.469,15.003,6.242
		c3.785,2.774,6.039,5.793,6.76,9.057c0.721,3.265,1.08,8.976,1.08,17.135V369.134z M327.289,343.089
		c0-3.688-0.375-6.046-1.126-7.075c-0.753-1.028-2.298-1.542-4.641-1.542c-1.982,0-3.499,0.416-4.549,1.249
		c-1.052,0.832-1.577,3.289-1.577,7.368v37.011c0,4.602,0.343,7.441,1.036,8.518c0.689,1.077,2.298,1.616,4.821,1.616
		c2.581,0,4.236-0.62,4.957-1.861c0.721-1.24,1.08-4.193,1.08-8.862V343.089z"/>
	<path fill="#171C25" d="M379.376,322.723h63.259v15.862h-25.322v15.03h23.7v15.078h-23.7v17.429h27.845v15.862h-65.782V322.723z"/>
	<path fill="#171C25" d="M536.441,346.712h-35.234v-5.875c0-2.742-0.451-4.487-1.351-5.238c-0.901-0.751-2.404-1.126-4.506-1.126
		c-2.284,0-4.009,0.507-5.181,1.519c-1.172,1.013-1.758,2.547-1.758,4.605c0,2.645,0.658,4.638,1.976,5.977
		c1.257,1.339,4.831,2.955,10.72,4.846c16.888,5.446,27.523,9.914,31.91,13.406c4.384,3.493,6.577,9.123,6.577,16.89
		c0,5.647-1.216,9.809-3.649,12.484c-2.433,2.676-7.134,4.92-14.103,6.731c-6.97,1.812-15.079,2.717-24.33,2.717
		c-10.153,0-18.819-1.045-25.997-3.133c-7.179-2.088-11.881-4.749-14.103-7.98c-2.223-3.231-3.334-7.816-3.334-13.757v-5.189h35.234
		v9.645c0,2.97,0.496,4.879,1.487,5.728c0.991,0.849,2.749,1.273,5.272,1.273c2.523,0,4.4-0.539,5.631-1.616
		c1.231-1.077,1.847-2.676,1.847-4.798c0-4.667-1.171-7.719-3.514-9.155c-2.403-1.436-8.321-3.835-17.752-7.197
		c-9.432-3.394-15.68-5.858-18.743-7.392c-3.064-1.534-5.603-3.655-7.614-6.364c-2.014-2.709-3.019-6.169-3.019-10.379
		c0-6.071,1.426-10.509,4.281-13.316c2.853-2.806,7.464-5.001,13.832-6.584c6.368-1.583,14.058-2.375,23.069-2.375
		c9.852,0,18.248,0.865,25.187,2.595c6.939,1.73,11.535,3.909,13.788,6.536s3.379,7.091,3.379,13.389V346.712z"/>
</g>
</svg>
