<?xml version="1.0" encoding="utf-8"?>
<!-- Generator: Adobe Illustrator 16.0.0, SVG Export Plug-In . SVG Version: 6.00 Build 0)  -->
<!DOCTYPE svg PUBLIC "-//W3C//DTD SVG 1.1//EN" "http://www.w3.org/Graphics/SVG/1.1/DTD/svg11.dtd">
<svg version="1.1" id="Layer_1" xmlns="http://www.w3.org/2000/svg" xmlns:xlink="http://www.w3.org/1999/xlink" x="0px" y="0px"
	 width="539.595px" height="403.648px" viewBox="0 0 539.595 403.648" enable-background="new 0 0 539.595 403.648"
	 xml:space="preserve">
<g>
	<path fill-rule="evenodd" clip-rule="evenodd" fill="#B12F57" d="M22.864,115.298c3.624-6.577,9.275-8.407,16.587-8.39
		c73.097,0.174,146.194,0.105,219.291,0.105c1.841,0,3.681,0,5.917,0c1.101,19.693,9.011,35.525,25.767,45.998
		c16.617,10.385,34.154,10.703,52.767,3.015c-2.033,8.743-3.909,16.94-5.851,25.121c-4.038,17.014-7.991,34.049-12.266,51.002
		c-0.851,3.371-0.045,4.613,3.012,5.761c19.118,7.184,38.101,14.733,57.279,21.749c9.616,3.521,15.707,9.646,19,19.396
		c10.297,30.496,21.002,60.853,31.474,91.288c5.993,17.42-5.543,34.059-23.149,33.558c-10.027-0.285-18.522-6.632-22.147-16.98
		c-9.312-26.574-18.561-53.169-27.638-79.824c-1.223-3.591-3.105-5.486-6.641-6.813c-22.606-8.478-45.104-17.248-67.691-25.777
		c-2.815-1.063-3.71-2.441-4.286-5.504c-3.646-19.397,2.924-37.36,7.222-55.651c1.693-7.201,3.518-14.371,4.552-21.863
		c-0.604,1.212-1.271,2.398-1.803,3.642c-7.381,17.217-14.799,34.42-22.039,51.696c-0.907,2.166-1.289,4.763-1.157,7.118
		c1.275,22.765,2.713,45.522,4.101,68.281c0.633,10.373,1.462,20.738,1.824,31.121c0.445,12.766-7.493,21.993-18.989,22.607
		c-11.521,0.614-20.736-7.769-21.592-20.256c-1.486-21.665-2.638-43.351-3.949-65.028c-0.807-13.314-1.89-26.617-2.345-39.943
		c-0.153-4.505,0.384-9.411,2.068-13.537c7.957-19.484,16.423-38.76,24.697-58.117c0.577-1.351,1.057-2.743,0.927-4.435
		c-3.496,5.441-7,10.879-10.489,16.324c-8.531,13.316-16.968,26.695-25.632,39.923c-3.097,4.727-4.704,9.59-4.331,15.294
		c1.153,17.645,2.175,35.299,3.039,52.959c0.104,2.108-0.57,4.622-1.748,6.362c-5.826,8.602-11.579,17.298-18.089,25.37
		c-4.027,4.992-9.111,9.247-14.155,13.289c-22.512,18.047-45.133,35.957-67.807,53.798c-14.669,11.545-34.798,5.237-39.189-12.388
		c-2.52-10.117,0.706-18.673,8.91-25.19c23.445-18.621,46.938-37.184,70.343-55.855c2.263-1.806,4.33-4.007,6.013-6.364
		c17.217-24.102,34.395-48.23,51.402-72.479c2.062-2.941,3.528-6.502,4.462-9.991c2.671-9.979,4.926-20.07,7.583-31.11
		c-2.231,0.898-3.714,1.437-5.149,2.082c-59.995,26.981-119.984,53.973-179.977,80.96c-9.735,4.379-14.632,2.88-20.125-6.122
		C22.864,212.766,22.864,164.033,22.864,115.298z"/>
	<path fill-rule="evenodd" clip-rule="evenodd" fill="#B12F57" d="M499.651,24.97c-3.235,8.604-9.863,13.057-18.178,16.385
		c-26.689,10.683-53.193,21.833-79.711,32.944c-2.307,0.967-4.521,2.657-6.201,4.528c-6.522,7.263-12.82,14.728-19.176,22.14
		c-0.772,0.898-1.388,1.93-2.501,2.633c-2-15.525-8.44-28.139-20.414-38.522c10.362-10.342,17.507-23.123,32.643-28.724
		c27.383-10.134,54.289-21.638,81.025-33.405c12.572-5.533,26.449-3.921,32.513,12.708C499.651,18.761,499.651,21.865,499.651,24.97
		z"/>
	<path fill-rule="evenodd" clip-rule="evenodd" fill="#B12F57" d="M278.012,106.854c0.008-22.615,18.416-40.871,41.223-40.881
		c22.759-0.011,41.287,18.644,41.235,41.517c-0.05,22.374-18.842,41.004-41.396,41.04
		C296.448,148.565,278.003,129.845,278.012,106.854z"/>
</g>
</svg>
