<?xml version="1.0" encoding="utf-8"?>
<!-- Generator: Adobe Illustrator 23.0.3, SVG Export Plug-In . SVG Version: 6.00 Build 0)  -->
<svg version="1.1" id="Layer_1" xmlns="http://www.w3.org/2000/svg" xmlns:xlink="http://www.w3.org/1999/xlink" x="0px" y="0px"
	 viewBox="0 0 93.7 98.1" style="enable-background:new 0 0 93.7 98.1;" xml:space="preserve">
<style type="text/css">
	.st0{fill:none;stroke:#181C25;stroke-width:10;stroke-linecap:round;stroke-linejoin:round;stroke-miterlimit:10;}
</style>
<g id="Home" transform="translate(5 5)">
	<path id="Home-2" class="st0" d="M29.3,82.7V69.2c0-3.5,2.8-6.2,6.3-6.3h12.7c3.5,0,6.3,2.8,6.3,6.3l0,0l0,0v13.6
		c0,2.9,2.4,5.3,5.3,5.4h8.5c8.4,0,15.3-6.7,15.3-15.2l0,0V34.5c0-3.3-1.6-6.4-4.2-8.4L50.5,3c-5.1-4-12.3-4-17.4,0L4.2,26.2
		c-2.6,2-4.2,5.1-4.2,8.4V73c0,8.4,6.9,15.2,15.3,15.2h8.5C26.8,88.2,29.2,85.7,29.3,82.7L29.3,82.7"/>
</g>
</svg>
